<?xml version="1.0" encoding="utf-8"?>
<!-- Generator: Adobe Illustrator 20.0.0, SVG Export Plug-In . SVG Version: 6.00 Build 0)  -->
<svg version="1.1" id="Calque_1" xmlns="http://www.w3.org/2000/svg" xmlns:xlink="http://www.w3.org/1999/xlink" x="0px" y="0px"
	 viewBox="0 0 34 37" style="enable-background:new 0 0 34 37;" xml:space="preserve">
<style type="text/css">
	.st0{fill:#3700EB;}
</style>
<g>
	<g>
		<path class="st0" d="M16.2,2.9c-0.3,0-0.5-0.2-0.5-0.5V0.5c0-0.3,0.2-0.5,0.5-0.5c0.3,0,0.5,0.2,0.5,0.5v1.9
			C16.7,2.6,16.5,2.9,16.2,2.9z"/>
	</g>
	<g>
		<path class="st0" d="M16.2,37c-0.3,0-0.5-0.2-0.5-0.5V24.7c0-0.3,0.2-0.5,0.5-0.5c0.3,0,0.5,0.2,0.5,0.5v11.8
			C16.7,36.8,16.5,37,16.2,37z"/>
	</g>
	<g>
		<path class="st0" d="M28.4,12.8H5c-1.1,0-1.9-0.9-1.9-2v-7c0-1.1,0.9-2,1.9-2h23.4l5.4,5C33.9,7,34,7.1,34,7.3s-0.1,0.4-0.2,0.5
			L28.4,12.8z M5,2.9c-0.5,0-1,0.4-1,1v7c0,0.5,0.4,1,1,1H28l4.8-4.5L28,2.9H5z"/>
	</g>
	<g>
		<path class="st0" d="M29.2,25.2H5.6l-5.4-5C0.1,20.1,0,19.9,0,19.7c0-0.2,0.1-0.3,0.2-0.5l5.4-5h23.6c1.1,0,1.9,0.9,1.9,2v7
			C31.2,24.3,30.3,25.2,29.2,25.2z M6,24.2h23.3c0.5,0,1-0.4,1-1v-7c0-0.5-0.4-1-1-1H6l-4.8,4.5L6,24.2z"/>
	</g>
	<g>
		<path class="st0" d="M16.2,15.3c-0.3,0-0.5-0.2-0.5-0.5v-2.5c0-0.3,0.2-0.5,0.5-0.5c0.3,0,0.5,0.2,0.5,0.5v2.5
			C16.7,15.1,16.5,15.3,16.2,15.3z"/>
	</g>
</g>
</svg>
