<?xml version="1.0" encoding="utf-8"?>
<!-- Generator: Adobe Illustrator 20.0.0, SVG Export Plug-In . SVG Version: 6.00 Build 0)  -->
<svg version="1.1" id="Calque_1" xmlns="http://www.w3.org/2000/svg" xmlns:xlink="http://www.w3.org/1999/xlink" x="0px" y="0px"
	 viewBox="0 0 37 37" style="enable-background:new 0 0 37 37;" xml:space="preserve">
<style type="text/css">
	.st0{fill:#3700EB;}
</style>
<g>
	<g>
		<path class="st0" d="M37,4.7H0V0h37V4.7z M1,3.7h35V1H1V3.7z"/>
	</g>
	<g>
		<path class="st0" d="M36.5,30.8h-36c-0.3,0-0.5-0.2-0.5-0.5s0.2-0.5,0.5-0.5h36c0.3,0,0.5,0.2,0.5,0.5S36.8,30.8,36.5,30.8z"/>
	</g>
	<g>
		<path class="st0" d="M18.5,32.7c-0.3,0-0.5-0.2-0.5-0.5v-1.9c0-0.3,0.2-0.5,0.5-0.5S19,30,19,30.3v1.9
			C19,32.4,18.8,32.7,18.5,32.7z"/>
	</g>
	<g>
		<path class="st0" d="M18.5,37c-1.3,0-2.4-1.1-2.4-2.4s1.1-2.4,2.4-2.4s2.4,1.1,2.4,2.4S19.8,37,18.5,37z M18.5,33.3
			c-0.8,0-1.4,0.6-1.4,1.4s0.6,1.4,1.4,1.4s1.4-0.6,1.4-1.4S19.3,33.3,18.5,33.3z"/>
	</g>
	<g>
		<path class="st0" d="M35.8,30.8H1.2V3.7h34.5V30.8z M2.2,29.8h32.5V4.7H2.2V29.8z"/>
	</g>
	<g>
		<path class="st0" d="M22.2,27.7c-0.3,0-0.5-0.2-0.5-0.5v-1.9c0-0.3,0.2-0.5,0.5-0.5s0.5,0.2,0.5,0.5v1.9
			C22.7,27.5,22.5,27.7,22.2,27.7z"/>
	</g>
	<g>
		<path class="st0" d="M24.7,27.7c-0.3,0-0.5-0.2-0.5-0.5v-4.3c0-0.3,0.2-0.5,0.5-0.5s0.5,0.2,0.5,0.5v4.3
			C25.2,27.5,25,27.7,24.7,27.7z"/>
	</g>
	<g>
		<path class="st0" d="M27.2,27.7c-0.3,0-0.5-0.2-0.5-0.5v-3.1c0-0.3,0.2-0.5,0.5-0.5s0.5,0.2,0.5,0.5v3.1
			C27.7,27.5,27.5,27.7,27.2,27.7z"/>
	</g>
	<g>
		<path class="st0" d="M29.7,27.7c-0.3,0-0.5-0.2-0.5-0.5v-7.4c0-0.3,0.2-0.5,0.5-0.5s0.5,0.2,0.5,0.5v7.4
			C30.2,27.5,29.9,27.7,29.7,27.7z"/>
	</g>
	<g>
		<path class="st0" d="M32.2,27.7c-0.3,0-0.5-0.2-0.5-0.5v-5c0-0.3,0.2-0.5,0.5-0.5s0.5,0.2,0.5,0.5v5
			C32.7,27.5,32.4,27.7,32.2,27.7z"/>
	</g>
	<g>
		<path class="st0" d="M12.3,24.6H6.1c-0.3,0-0.5-0.2-0.5-0.5s0.2-0.5,0.5-0.5h6.2c0.3,0,0.5,0.2,0.5,0.5S12.6,24.6,12.3,24.6z"/>
	</g>
	<g>
		<path class="st0" d="M15.4,27.1H6.1c-0.3,0-0.5-0.2-0.5-0.5s0.2-0.5,0.5-0.5h9.3c0.3,0,0.5,0.2,0.5,0.5S15.7,27.1,15.4,27.1z"/>
	</g>
	<g>
		<path class="st0" d="M12,20.9c-3.9,0-7-3.1-7-7s3.1-7,7-7c3.9,0,7,3.1,7,7S15.9,20.9,12,20.9z M12,7.8c-3.3,0-6,2.7-6,6s2.7,6,6,6
			s6-2.7,6-6S15.3,7.8,12,7.8z"/>
	</g>
	<g>
		<path class="st0" d="M18.5,14.7h-7.3l0-0.5v-7l0.3-0.3l0.2,0c2-0.1,3.9,0.7,5.3,2c1.4,1.4,2.1,3.3,2,5.3l0,0.2l-0.3,0.3L18.5,14.7
			z M12.2,13.7H18c0-1.5-0.7-3-1.8-4.1s-2.5-1.7-4.1-1.8V13.7z"/>
	</g>
	<g>
		<path class="st0" d="M16.3,19.3c-0.1,0-0.3,0-0.4-0.1l-4.6-4.6c-0.2-0.2-0.2-0.5,0-0.7s0.5-0.2,0.7,0l4.6,4.6
			c0.2,0.2,0.2,0.5,0,0.7C16.5,19.2,16.4,19.3,16.3,19.3z"/>
	</g>
	<g>
		<path class="st0" d="M29.1,11.6h-5c-0.3,0-0.5-0.2-0.5-0.5s0.2-0.5,0.5-0.5h5c0.3,0,0.5,0.2,0.5,0.5S29.3,11.6,29.1,11.6z"/>
	</g>
	<g>
		<path class="st0" d="M32.1,11.5c-0.1,0-0.3,0-0.3-0.1c0,0-0.1-0.1-0.1-0.2c0-0.1,0-0.1,0-0.2c0-0.1,0-0.1,0-0.2
			c0-0.1,0.1-0.1,0.1-0.2c0,0,0.1-0.1,0.2-0.1c0.1-0.1,0.3-0.1,0.4,0c0.1,0,0.1,0.1,0.2,0.1c0,0.1,0.1,0.1,0.1,0.2
			c0,0.1,0,0.1,0,0.2c0,0.1-0.1,0.3-0.2,0.4C32.4,11.5,32.3,11.5,32.1,11.5z"/>
	</g>
	<g>
		<path class="st0" d="M32.2,8.4h-1.9c-0.3,0-0.5-0.2-0.5-0.5s0.2-0.5,0.5-0.5h1.9c0.3,0,0.5,0.2,0.5,0.5S32.4,8.4,32.2,8.4z"/>
	</g>
	<g>
		<path class="st0" d="M25.3,8.4h-1.2c-0.3,0-0.5-0.2-0.5-0.5s0.2-0.5,0.5-0.5h1.2c0.3,0,0.5,0.2,0.5,0.5S25.6,8.4,25.3,8.4z"/>
	</g>
	<g>
		<path class="st0" d="M27.8,8.4c-0.1,0-0.1,0-0.2,0c-0.1,0-0.1-0.1-0.2-0.1c0,0-0.1-0.1-0.1-0.2c0-0.1,0-0.1,0-0.2
			c0-0.1,0.1-0.3,0.2-0.4c0,0,0.1-0.1,0.2-0.1c0.2-0.1,0.4,0,0.5,0.1c0.1,0.1,0.1,0.2,0.1,0.4c0,0.1,0,0.1,0,0.2
			c0,0.1-0.1,0.1-0.1,0.2C28.1,8.4,27.9,8.4,27.8,8.4z"/>
	</g>
</g>
</svg>
