<?xml version="1.0" encoding="utf-8"?>
<!-- Generator: Adobe Illustrator 20.0.0, SVG Export Plug-In . SVG Version: 6.00 Build 0)  -->
<svg version="1.1" id="Calque_1" xmlns="http://www.w3.org/2000/svg" xmlns:xlink="http://www.w3.org/1999/xlink" x="0px" y="0px"
	 viewBox="0 0 36 36" style="enable-background:new 0 0 36 36;" xml:space="preserve">
<style type="text/css">
	.st0{fill:#3700EB;}
</style>
<g>
	<g>
		<g>
			<path class="st0" d="M25.7,25.7H10.3V14.6l2.7-4.3h10l2.7,4.3V25.7z M11.2,24.8h13.5v-9.9l-2.3-3.7h-9l-2.3,3.7V24.8z"/>
		</g>
		<g>
			<path class="st0" d="M25.2,15.2H10.8c-0.3,0-0.5-0.2-0.5-0.5s0.2-0.5,0.5-0.5h14.5c0.3,0,0.5,0.2,0.5,0.5S25.5,15.2,25.2,15.2z"
				/>
		</g>
		<g>
			<path class="st0" d="M18,15.2c-0.3,0-0.5-0.2-0.5-0.5v-4c0-0.3,0.2-0.5,0.5-0.5s0.5,0.2,0.5,0.5v4C18.5,15,18.3,15.2,18,15.2z"/>
		</g>
		<g>
			<path class="st0" d="M19.5,18h-3c-0.5,0-1-0.4-1-1c0-0.5,0.4-1,1-1h3c0.5,0,1,0.4,1,1C20.5,17.5,20,18,19.5,18z M16.5,17l3,0
				c0,0,0,0,0,0L16.5,17z"/>
		</g>
		<g>
			<path class="st0" d="M20,24.2h-4c-0.3,0-0.5-0.2-0.5-0.5s0.2-0.5,0.5-0.5h4c0.3,0,0.5,0.2,0.5,0.5S20.3,24.2,20,24.2z"/>
		</g>
		<g>
			<path class="st0" d="M16.8,23.2c-0.3,0-0.5-0.2-0.5-0.5v-2.2c0-0.3,0.2-0.5,0.5-0.5s0.5,0.2,0.5,0.5v2.2
				C17.2,23,17,23.2,16.8,23.2z"/>
		</g>
		<g>
			<path class="st0" d="M16,21.7c-0.1,0-0.2,0-0.3-0.1c-0.2-0.2-0.2-0.5,0-0.7l0.7-0.7c0.2-0.2,0.5-0.2,0.7,0c0.2,0.2,0.2,0.5,0,0.7
				l-0.7,0.7C16.2,21.7,16.1,21.7,16,21.7z"/>
		</g>
		<g>
			<path class="st0" d="M17.5,21.7c-0.1,0-0.2,0-0.3-0.1l-0.7-0.7c-0.2-0.2-0.2-0.5,0-0.7c0.2-0.2,0.5-0.2,0.7,0l0.7,0.7
				c0.2,0.2,0.2,0.5,0,0.7C17.7,21.7,17.6,21.7,17.5,21.7z"/>
		</g>
		<g>
			<path class="st0" d="M19.2,23.2c-0.3,0-0.5-0.2-0.5-0.5v-2.2c0-0.3,0.2-0.5,0.5-0.5s0.5,0.2,0.5,0.5v2.2
				C19.7,23,19.5,23.2,19.2,23.2z"/>
		</g>
		<g>
			<path class="st0" d="M18.5,21.7c-0.1,0-0.2,0-0.3-0.1c-0.2-0.2-0.2-0.5,0-0.7l0.7-0.7c0.2-0.2,0.5-0.2,0.7,0
				c0.2,0.2,0.2,0.5,0,0.7l-0.7,0.7C18.7,21.7,18.6,21.7,18.5,21.7z"/>
		</g>
		<g>
			<path class="st0" d="M20,21.7c-0.1,0-0.2,0-0.3-0.1l-0.7-0.7c-0.2-0.2-0.2-0.5,0-0.7c0.2-0.2,0.5-0.2,0.7,0l0.7,0.7
				c0.2,0.2,0.2,0.5,0,0.7C20.2,21.7,20.1,21.7,20,21.7z"/>
		</g>
	</g>
	<g>
		<g>
			<path class="st0" d="M18,34.2C9.1,34.2,1.8,26.9,1.8,18S9.1,1.8,18,1.8S34.2,9.1,34.2,18S26.9,34.2,18,34.2z M18,2.8
				C9.6,2.8,2.8,9.6,2.8,18c0,8.4,6.8,15.2,15.2,15.2c8.4,0,15.2-6.8,15.2-15.2C33.2,9.6,26.4,2.8,18,2.8z"/>
		</g>
		<g>
			<path class="st0" d="M4.1,18.5H0.5C0.2,18.5,0,18.3,0,18s0.2-0.5,0.5-0.5h3.6c0.3,0,0.5,0.2,0.5,0.5S4.4,18.5,4.1,18.5z"/>
		</g>
		<g>
			<path class="st0" d="M35.5,18.5h-3.6c-0.3,0-0.5-0.2-0.5-0.5s0.2-0.5,0.5-0.5h3.6c0.3,0,0.5,0.2,0.5,0.5S35.8,18.5,35.5,18.5z"/>
		</g>
		<g>
			<path class="st0" d="M18,36c-0.3,0-0.5-0.2-0.5-0.5v-3.6c0-0.3,0.2-0.5,0.5-0.5s0.5,0.2,0.5,0.5v3.6C18.5,35.8,18.3,36,18,36z"/>
		</g>
		<g>
			<path class="st0" d="M18,4.6c-0.3,0-0.5-0.2-0.5-0.5V0.5C17.5,0.2,17.7,0,18,0s0.5,0.2,0.5,0.5v3.6C18.5,4.4,18.3,4.6,18,4.6z"/>
		</g>
	</g>
</g>
</svg>
