<?xml version="1.0" encoding="utf-8"?>
<!-- Generator: Adobe Illustrator 20.0.0, SVG Export Plug-In . SVG Version: 6.00 Build 0)  -->
<svg version="1.1" id="Calque_1" xmlns="http://www.w3.org/2000/svg" xmlns:xlink="http://www.w3.org/1999/xlink" x="0px" y="0px"
	 viewBox="0 0 37 37" style="enable-background:new 0 0 37 37;" xml:space="preserve">
<style type="text/css">
	.st0{fill:#3700EB;}
</style>
<g>
	<g>
		<path class="st0" d="M36.5,17.8c-0.1,0-0.2,0-0.3-0.1L18.5,1.4L0.8,17.7c-0.2,0.2-0.5,0.2-0.7,0c-0.2-0.2-0.2-0.5,0-0.7L18.5,0
			l18.3,16.9c0.2,0.2,0.2,0.5,0,0.7C36.8,17.8,36.6,17.8,36.5,17.8z"/>
	</g>
	<g>
		<path class="st0" d="M33.8,37H3.2V14.1L18.5,0l15.3,14.1V37z M4.2,36h28.6V14.6L18.5,1.4L4.2,14.6V36z"/>
	</g>
	<g>
		<path class="st0" d="M17.1,22.3H8.4v-8.7h8.7V22.3z M9.4,21.3h6.7v-6.7H9.4V21.3z"/>
	</g>
	<g>
		<path class="st0" d="M28.6,22.3h-8.7v-8.7h8.7V22.3z M20.9,21.3h6.7v-6.7h-6.7V21.3z"/>
	</g>
	<g>
		<path class="st0" d="M17.1,33.8H8.4v-8.7h8.7V33.8z M9.4,32.8h6.7v-6.7H9.4V32.8z"/>
	</g>
	<g>
		<path class="st0" d="M28.6,33.8h-8.7v-8.7h8.7V33.8z M20.9,32.8h6.7v-6.7h-6.7V32.8z"/>
	</g>
</g>
</svg>
