<?xml version="1.0" encoding="utf-8"?>
<!-- Generator: Adobe Illustrator 20.0.0, SVG Export Plug-In . SVG Version: 6.00 Build 0)  -->
<svg version="1.1" id="Calque_1" xmlns="http://www.w3.org/2000/svg" xmlns:xlink="http://www.w3.org/1999/xlink" x="0px" y="0px"
	 viewBox="0 0 26 26" style="enable-background:new 0 0 26 26;" xml:space="preserve">
<style type="text/css">
	.st0{fill:#1C1C1B;}
	.st1{fill:#3700EB;}
</style>
<g>
	<g>
		<path class="st0" d="M26,26H0V7.2L4.5,0h17L26,7.2V26z M0.8,25.2h24.3V7.5L21,0.8H5L0.8,7.5V25.2z"/>
	</g>
	<g>
		<path class="st0" d="M25.6,7.8H0.4C0.2,7.8,0,7.6,0,7.4c0-0.2,0.2-0.4,0.4-0.4h25.2c0.2,0,0.4,0.2,0.4,0.4
			C26,7.6,25.8,7.8,25.6,7.8z"/>
	</g>
	<g>
		<path class="st0" d="M13,7.8c-0.2,0-0.4-0.2-0.4-0.4V0.4C12.6,0.2,12.8,0,13,0s0.4,0.2,0.4,0.4v6.9C13.4,7.6,13.2,7.8,13,7.8z"/>
	</g>
	<g>
		<path class="st1" d="M15.6,12.6h-5.2c-0.7,0-1.3-0.6-1.3-1.3c0-0.7,0.6-1.3,1.3-1.3h5.2c0.7,0,1.3,0.6,1.3,1.3
			C16.9,12,16.3,12.6,15.6,12.6z M10.4,10.8c-0.2,0-0.4,0.2-0.4,0.4c0,0.2,0.2,0.4,0.4,0.4h5.2c0.2,0,0.4-0.2,0.4-0.4
			c0-0.2-0.2-0.4-0.4-0.4H10.4z"/>
	</g>
	<g>
		<path class="st1" d="M16.5,23.4H9.5c-0.2,0-0.4-0.2-0.4-0.4c0-0.2,0.2-0.4,0.4-0.4h6.9c0.2,0,0.4,0.2,0.4,0.4
			C16.9,23.2,16.7,23.4,16.5,23.4z"/>
	</g>
	<g>
		<path class="st1" d="M10.8,21.7c-0.2,0-0.4-0.2-0.4-0.4v-3.9c0-0.2,0.2-0.4,0.4-0.4s0.4,0.2,0.4,0.4v3.9
			C11.2,21.5,11.1,21.7,10.8,21.7z"/>
	</g>
	<g>
		<path class="st1" d="M9.5,19.1c-0.1,0-0.2,0-0.3-0.1c-0.2-0.2-0.2-0.4,0-0.6l1.3-1.3c0.2-0.2,0.4-0.2,0.6,0c0.2,0.2,0.2,0.4,0,0.6
			l-1.3,1.3C9.7,19,9.6,19.1,9.5,19.1z"/>
	</g>
	<g>
		<path class="st1" d="M12.1,19.1c-0.1,0-0.2,0-0.3-0.1l-1.3-1.3c-0.2-0.2-0.2-0.4,0-0.6c0.2-0.2,0.4-0.2,0.6,0l1.3,1.3
			c0.2,0.2,0.2,0.4,0,0.6C12.3,19,12.2,19.1,12.1,19.1z"/>
	</g>
	<g>
		<path class="st1" d="M15.2,21.7c-0.2,0-0.4-0.2-0.4-0.4v-3.9c0-0.2,0.2-0.4,0.4-0.4s0.4,0.2,0.4,0.4v3.9
			C15.6,21.5,15.4,21.7,15.2,21.7z"/>
	</g>
	<g>
		<path class="st1" d="M13.9,19.1c-0.1,0-0.2,0-0.3-0.1c-0.2-0.2-0.2-0.4,0-0.6l1.3-1.3c0.2-0.2,0.4-0.2,0.6,0
			c0.2,0.2,0.2,0.4,0,0.6l-1.3,1.3C14.1,19,14,19.1,13.9,19.1z"/>
	</g>
	<g>
		<path class="st1" d="M16.5,19.1c-0.1,0-0.2,0-0.3-0.1l-1.3-1.3c-0.2-0.2-0.2-0.4,0-0.6c0.2-0.2,0.4-0.2,0.6,0l1.3,1.3
			c0.2,0.2,0.2,0.4,0,0.6C16.7,19,16.6,19.1,16.5,19.1z"/>
	</g>
</g>
</svg>
