<?xml version="1.0" encoding="utf-8"?>
<!-- Generator: Adobe Illustrator 20.0.0, SVG Export Plug-In . SVG Version: 6.00 Build 0)  -->
<svg version="1.1" id="Calque_1" xmlns="http://www.w3.org/2000/svg" xmlns:xlink="http://www.w3.org/1999/xlink" x="0px" y="0px"
	 viewBox="0 0 30 30" style="enable-background:new 0 0 30 30;" xml:space="preserve">
<style type="text/css">
	.st0{fill:#3200E6;}
	.st1{fill:#1D1D1B;}
</style>
<g>
	<g>
		<path class="st0" d="M13.4,30L0,16.6L16.7,0h7.4L30,5.9v7.5L13.4,30z M1.4,16.6l12,12L29,13V6.3L23.7,1h-6.6L1.4,16.6z"/>
	</g>
	<g>
		<path class="st1" d="M23.1,8.9c-1.1,0-2-0.9-2-2s0.9-2,2-2c1.1,0,2,0.9,2,2S24.2,8.9,23.1,8.9z M23.1,5.8c-0.6,0-1.1,0.5-1.1,1.1
			c0,0.6,0.5,1.1,1.1,1.1c0.6,0,1.1-0.5,1.1-1.1C24.2,6.3,23.7,5.8,23.1,5.8z"/>
	</g>
	<g>
		<path class="st0" d="M16.6,26.8L3.2,13.4L16.7,0h7.4L30,5.9v7.5L16.6,26.8z M4.6,13.4l12,12L29,13V6.3L23.7,1h-6.6L4.6,13.4z"/>
	</g>
	<g>
		<path class="st1" d="M22.6,7.4c-0.1,0-0.2,0-0.3-0.1C12-0.4,1.1,7.2,1,7.3C0.7,7.4,0.4,7.4,0.3,7.2C0.1,7,0.2,6.7,0.4,6.5
			c0.1-0.1,11.6-8.1,22.5,0C23.1,6.7,23.1,7,23,7.2C22.9,7.3,22.7,7.4,22.6,7.4z"/>
	</g>
	<g>
		<path class="st1" d="M22.4,25.5c-1.3,0-2.7-0.3-3.8-1c-1.7-1-4.4-3.6-2.8-9.8c0.1-0.3,0.3-0.4,0.6-0.3c0.3,0.1,0.4,0.3,0.3,0.6
			c-1.1,4.1-0.2,7.2,2.4,8.7c2.6,1.5,6,0.8,7.5-0.6c4-4,1.6-8.3,1.5-8.5c-0.1-0.2-0.1-0.5,0.2-0.7c0.2-0.1,0.5-0.1,0.7,0.2
			c0,0.1,2.9,5.1-1.7,9.7C26,24.9,24.2,25.5,22.4,25.5z"/>
	</g>
</g>
</svg>
