<?xml version="1.0" encoding="utf-8"?>
<!-- Generator: Adobe Illustrator 20.0.0, SVG Export Plug-In . SVG Version: 6.00 Build 0)  -->
<svg version="1.1" id="Calque_1" xmlns="http://www.w3.org/2000/svg" xmlns:xlink="http://www.w3.org/1999/xlink" x="0px" y="0px"
	 viewBox="0 0 30 30" style="enable-background:new 0 0 30 30;" xml:space="preserve">
<style type="text/css">
	.st0{fill:#3700EB;}
	.st1{fill:#1C1C1B;}
</style>
<g>
	<g>
		<path class="st0" d="M6.1,28.8L1.8,24c-2.3-2.6-2.3-6.8,0-9.5c1.2-1.3,2.7-2,4.3-2c0,0,0,0,0,0c1.6,0,3.2,0.7,4.3,2
			c2.3,2.6,2.3,6.8,0,9.5L6.1,28.8z M6.1,13.5c-1.4,0-2.6,0.6-3.6,1.7c-2,2.2-2,5.9,0,8.2l3.6,4l3.6-4c2-2.2,2-5.9,0-8.2
			C8.7,14.1,7.4,13.5,6.1,13.5C6.1,13.5,6.1,13.5,6.1,13.5z"/>
	</g>
	<g>
		<path class="st0" d="M24.6,12.2l-3.3-3.6c-1.8-2-1.8-5.1,0-7.1c0.9-1,2-1.5,3.3-1.5c1.2,0,2.4,0.5,3.3,1.5c1.8,2,1.8,5.1,0,7.1
			L24.6,12.2z M24.6,1c-1,0-1.9,0.4-2.6,1.2c-1.4,1.6-1.4,4.2,0,5.8l2.6,2.8L27.1,8c1.4-1.6,1.4-4.2,0-5.8C26.4,1.4,25.5,1,24.6,1z"
			/>
	</g>
	<g>
		<path class="st1" d="M22,30h-1.2c-0.3,0-0.5-0.2-0.5-0.5c0-0.3,0.2-0.5,0.5-0.5H22c0.3,0,0.5,0.2,0.5,0.5C22.5,29.8,22.3,30,22,30
			z M18.5,30h-1.2c-0.3,0-0.5-0.2-0.5-0.5c0-0.3,0.2-0.5,0.5-0.5h1.2c0.3,0,0.5,0.2,0.5,0.5C19,29.8,18.8,30,18.5,30z M15,30h-1.2
			c-0.3,0-0.5-0.2-0.5-0.5c0-0.3,0.2-0.5,0.5-0.5H15c0.3,0,0.5,0.2,0.5,0.5C15.5,29.8,15.3,30,15,30z M11.5,30h-1.2
			c-0.3,0-0.5-0.2-0.5-0.5c0-0.3,0.2-0.5,0.5-0.5h1.2c0.3,0,0.5,0.2,0.5,0.5C12,29.8,11.8,30,11.5,30z M8,30H6.8
			c-0.3,0-0.5-0.2-0.5-0.5c0-0.3,0.2-0.5,0.5-0.5H8c0.3,0,0.5,0.2,0.5,0.5C8.5,29.8,8.3,30,8,30z M24.4,30c-0.3,0-0.5-0.2-0.5-0.4
			c0-0.3,0.2-0.5,0.4-0.5c0.3,0,0.6-0.1,0.9-0.3c0.2-0.1,0.5-0.1,0.7,0.1c0.1,0.2,0.1,0.5-0.1,0.7C25.3,29.8,24.9,30,24.4,30
			C24.4,30,24.4,30,24.4,30z M26.5,27.7c-0.3,0-0.5-0.2-0.5-0.5c0-0.3-0.1-0.6-0.3-0.9c-0.1-0.2-0.1-0.5,0.1-0.7
			c0.2-0.1,0.5-0.1,0.7,0.1c0.3,0.4,0.4,0.9,0.4,1.3C27,27.4,26.8,27.6,26.5,27.7C26.5,27.7,26.5,27.7,26.5,27.7z M24.1,25.5H23
			c-0.3,0-0.5-0.2-0.5-0.5c0-0.3,0.2-0.5,0.5-0.5h1.2c0.3,0,0.5,0.2,0.5,0.5C24.6,25.3,24.4,25.5,24.1,25.5z M20.6,25.5h-1.2
			c-0.3,0-0.5-0.2-0.5-0.5c0-0.3,0.2-0.5,0.5-0.5h1.2c0.3,0,0.5,0.2,0.5,0.5C21.1,25.3,20.9,25.5,20.6,25.5z M17.2,25.3
			c-0.1,0-0.1,0-0.2,0c-0.4-0.2-0.8-0.5-1.1-0.9c-0.2-0.2-0.1-0.5,0.1-0.7c0.2-0.2,0.5-0.1,0.7,0.1c0.2,0.2,0.4,0.4,0.7,0.6
			c0.2,0.1,0.4,0.4,0.3,0.6C17.5,25.2,17.3,25.3,17.2,25.3z M15.9,22.4c-0.1,0-0.1,0-0.2,0c-0.2-0.1-0.4-0.4-0.3-0.6
			c0.2-0.4,0.5-0.8,0.9-1.1c0.2-0.2,0.5-0.1,0.7,0.1c0.2,0.2,0.1,0.5-0.1,0.7c-0.2,0.2-0.4,0.4-0.6,0.7
			C16.3,22.3,16.1,22.4,15.9,22.4z M27,21h-1.2c-0.3,0-0.5-0.2-0.5-0.5c0-0.3,0.2-0.5,0.5-0.5H27c0.3,0,0.5,0.2,0.5,0.5
			C27.5,20.8,27.3,21,27,21z M23.5,21h-1.2c-0.3,0-0.5-0.2-0.5-0.5c0-0.3,0.2-0.5,0.5-0.5h1.2c0.3,0,0.5,0.2,0.5,0.5
			C24,20.8,23.8,21,23.5,21z M20,21h-1.2c-0.3,0-0.5-0.2-0.5-0.5c0-0.3,0.2-0.5,0.5-0.5H20c0.3,0,0.5,0.2,0.5,0.5
			C20.5,20.8,20.3,21,20,21z M29.1,20.1c-0.1,0-0.2,0-0.3-0.1c-0.2-0.2-0.3-0.5-0.1-0.7c0.2-0.2,0.3-0.5,0.3-0.8
			c0-0.3,0.3-0.5,0.5-0.4c0.3,0,0.5,0.3,0.4,0.5c-0.1,0.5-0.2,0.9-0.5,1.3C29.4,20,29.2,20.1,29.1,20.1z M28.6,17
			c-0.1,0-0.2,0-0.3-0.1c-0.2-0.2-0.5-0.3-0.8-0.3c-0.3,0-0.5-0.3-0.4-0.5c0-0.3,0.3-0.5,0.5-0.4c0.5,0.1,0.9,0.2,1.3,0.5
			c0.2,0.2,0.3,0.5,0.1,0.7C28.9,16.9,28.8,17,28.6,17z M25.2,16.5h-1.2c-0.3,0-0.5-0.2-0.5-0.5c0-0.3,0.2-0.5,0.5-0.5h1.2
			c0.3,0,0.5,0.2,0.5,0.5C25.7,16.3,25.5,16.5,25.2,16.5z M21.7,16.5h-1.2c-0.3,0-0.5-0.2-0.5-0.5c0-0.3,0.2-0.5,0.5-0.5h1.2
			c0.3,0,0.5,0.2,0.5,0.5C22.2,16.3,22,16.5,21.7,16.5z M18.2,16.5H17c-0.3,0-0.5-0.2-0.5-0.5c0-0.3,0.2-0.5,0.5-0.5h1.2
			c0.3,0,0.5,0.2,0.5,0.5C18.7,16.3,18.5,16.5,18.2,16.5z M14.8,16.1c-0.1,0-0.2,0-0.3-0.1c-0.4-0.3-0.7-0.6-1-1
			c-0.1-0.2,0-0.5,0.2-0.7c0.2-0.1,0.5,0,0.7,0.2c0.1,0.3,0.4,0.5,0.6,0.7c0.2,0.1,0.3,0.4,0.1,0.7C15.1,16.1,14.9,16.1,14.8,16.1z
			 M14.1,13.1c-0.1,0-0.2,0-0.3-0.1c-0.2-0.1-0.3-0.4-0.2-0.7c0.3-0.4,0.6-0.7,1-1c0.2-0.1,0.5,0,0.7,0.2c0.1,0.2,0,0.5-0.2,0.7
			c-0.3,0.1-0.5,0.4-0.7,0.6C14.4,13,14.2,13.1,14.1,13.1z M21.9,12h-1.2c-0.3,0-0.5-0.2-0.5-0.5s0.2-0.5,0.5-0.5h1.2
			c0.3,0,0.5,0.2,0.5,0.5S22.2,12,21.9,12z M18.4,12h-1.2c-0.3,0-0.5-0.2-0.5-0.5s0.2-0.5,0.5-0.5h1.2c0.3,0,0.5,0.2,0.5,0.5
			S18.6,12,18.4,12z"/>
	</g>
	<g>
		<path class="st0" d="M24.7,7.5c-1.5,0-2.8-1.2-2.8-2.7S23.2,2,24.7,2c1.5,0,2.8,1.2,2.8,2.7S26.2,7.5,24.7,7.5z M24.7,3
			c-1,0-1.8,0.8-1.8,1.8s0.8,1.8,1.8,1.8s1.8-0.8,1.8-1.8S25.7,3,24.7,3z"/>
	</g>
	<g>
		<path class="st0" d="M6.1,21.5c-1.7,0-3-1.3-3-3c0-1.6,1.4-3,3-3c1.7,0,3,1.3,3,3C9.1,20.2,7.8,21.5,6.1,21.5z M6.1,16.5
			c-1.1,0-2.1,0.9-2.1,2c0,1.1,0.9,2,2.1,2s2.1-0.9,2.1-2C8.1,17.4,7.2,16.5,6.1,16.5z"/>
	</g>
</g>
</svg>
