<?xml version="1.0" encoding="utf-8"?>
<!-- Generator: Adobe Illustrator 20.0.0, SVG Export Plug-In . SVG Version: 6.00 Build 0)  -->
<svg version="1.1" id="Calque_1" xmlns="http://www.w3.org/2000/svg" xmlns:xlink="http://www.w3.org/1999/xlink" x="0px" y="0px"
	 viewBox="0 0 24.2 29.6" style="enable-background:new 0 0 24.2 29.6;" xml:space="preserve">
<style type="text/css">
	.st0{fill:#716F6F;}
	.st1{fill:#3200E6;}
</style>
<g>
	<g>
		<path class="st0" d="M14.8,3.5H9.4V0h5.4V3.5z M10.4,2.5h3.4V1h-3.4V2.5z"/>
	</g>
	<g>
		<path class="st0" d="M24.2,29.6H0V1h10.4v1.5h3.4V1h10.4V29.6z M1,28.6h22.2V2h-8.4v1.5H9.4V2H1V28.6z"/>
	</g>
	<g>
		<path class="st1" d="M22.7,28.1H1.5V2.5h5.4v1.5h10.3V2.5h5.4V28.1z M2.5,27.1h19.2V3.5h-3.4v1.5H5.9V3.5H2.5V27.1z"/>
	</g>
	<g>
		<rect x="5.4" y="7.9" class="st1" width="4.4" height="1"/>
	</g>
	<g>
		<rect x="5.4" y="11.8" class="st1" width="2.5" height="1"/>
	</g>
	<g>
		<rect x="12.8" y="11.8" class="st1" width="3.5" height="1"/>
	</g>
	<g>
		<rect x="7.9" y="15.8" class="st1" width="3.5" height="1"/>
	</g>
	<g>
		<g>
			<path class="st1" d="M6.7,19.9c-1.6,0.8-1.8,2.6-1.9,4.2c0.6-0.2,1.1-0.5,1.7-0.7c-0.5-0.4-0.9-0.8-1.4-1.2
				c-1-0.8-2.4,0.6-1.4,1.4c0.5,0.4,0.9,0.8,1.4,1.2c0.7,0.6,1.7,0.2,1.7-0.7c0-0.9,0-2,0.9-2.5C8.9,21,7.9,19.3,6.7,19.9L6.7,19.9z
				"/>
		</g>
	</g>
	<g>
		<g>
			<path class="st1" d="M7,23.1c0.3,0.7,1,1.1,1.8,1.2c0.3,0,0.7,0,1-0.1c0.2-0.1,0.5-0.2,0.6-0.3c0.3-0.3,0.1,0.1-0.1-0.3
				c0.6,1.1,2.4,0.1,1.7-1c-0.4-0.7-1.2-0.9-1.9-0.8c-0.4,0.1-1.1,0.8-1.4,0.3C8.2,20.9,6.5,21.9,7,23.1L7,23.1z"/>
		</g>
	</g>
	<g>
		<rect x="11.8" y="23.7" transform="matrix(0.7071 -0.7071 0.7071 0.7071 -11.6041 20.3416)" class="st0" width="14" height="1"/>
	</g>
	<g>
		<path class="st0" d="M18.3,4.9H5.9V1h4.5v1.5h3.4V1h4.5V4.9z M6.9,3.9h10.3V2h-2.5v1.5H9.4V2H6.9V3.9z"/>
	</g>
	<g>
		<path class="st1" d="M10.4,13.3c-0.5,0-1-0.4-1-1s0.4-1,1-1s1,0.4,1,1S10.9,13.3,10.4,13.3z M10.4,12.3
			C10.4,12.3,10.4,12.3,10.4,12.3h0.5H10.4z"/>
	</g>
	<g>
		<path class="st1" d="M18.8,13.3c-0.5,0-1-0.4-1-1s0.4-1,1-1s1,0.4,1,1S19.3,13.3,18.8,13.3z M18.7,12.3
			C18.7,12.3,18.8,12.3,18.7,12.3h0.5H18.7z"/>
	</g>
	<g>
		<path class="st1" d="M5.4,17.3c-0.5,0-1-0.4-1-1c0-0.5,0.4-1,1-1s1,0.4,1,1C6.4,16.8,6,17.3,5.4,17.3z M5.4,16.3
			C5.4,16.3,5.4,16.3,5.4,16.3h0.5H5.4z"/>
	</g>
</g>
</svg>
