<?xml version="1.0" encoding="utf-8"?>
<!-- Generator: Adobe Illustrator 20.0.0, SVG Export Plug-In . SVG Version: 6.00 Build 0)  -->
<svg version="1.1" id="Calque_1" xmlns="http://www.w3.org/2000/svg" xmlns:xlink="http://www.w3.org/1999/xlink" x="0px" y="0px"
	 viewBox="0 0 24 30.5" style="enable-background:new 0 0 24 30.5;" xml:space="preserve">
<style type="text/css">
	.st0{fill:#E8E8DF;}
	.st1{fill:#D9D7CA;}
	.st2{fill:#8A96C9;}
	.st3{fill:#5A91CD;}
	.st4{fill:#FFFFFF;}
</style>
<g>
	<path class="st0" d="M16.8,0.2H1.3c-0.4,0-0.8,0.4-0.8,1v28.4c0,0.2,0.4,0.5,0.8,0.5h21.5c0.4,0,0.8-0.4,0.8-0.5V7.2
		c0-0.4,0-0.5-0.1-0.6l-6.2-6.2C17.1,0.3,16.9,0.2,16.8,0.2z"/>
	<polygon class="st1" points="17.1,0.3 17.1,6.7 23.4,6.7 	"/>
	<path class="st2" d="M6.9,7.2H3.7C3.4,7.2,3.2,7,3.2,6.7s0.2-0.5,0.5-0.5h3.2c0.3,0,0.5,0.2,0.5,0.5S7.2,7.2,6.9,7.2z"/>
	<path class="st2" d="M8.5,9.9H3.7c-0.3,0-0.5-0.2-0.5-0.5s0.2-0.5,0.5-0.5h4.8c0.3,0,0.5,0.2,0.5,0.5S8.8,9.9,8.5,9.9z"/>
	<path class="st2" d="M10.7,9.9c-0.1,0-0.3-0.1-0.4-0.2c-0.1-0.1-0.2-0.2-0.2-0.4c0-0.1,0.1-0.3,0.2-0.4c0.2-0.2,0.6-0.2,0.8,0
		c0.1,0.1,0.2,0.2,0.2,0.4c0,0.1-0.1,0.3-0.2,0.4C10.9,9.8,10.8,9.9,10.7,9.9z"/>
	<path class="st2" d="M17.1,9.9h-4.3c-0.3,0-0.5-0.2-0.5-0.5s0.2-0.5,0.5-0.5h4.3c0.3,0,0.5,0.2,0.5,0.5S17.4,9.9,17.1,9.9z"/>
	<path class="st2" d="M3.7,17.9c-0.1,0-0.3-0.1-0.4-0.2c-0.1-0.1-0.2-0.2-0.2-0.4c0-0.1,0.1-0.3,0.2-0.4c0.2-0.2,0.6-0.2,0.8,0
		c0.1,0.1,0.2,0.2,0.2,0.4c0,0.1-0.1,0.3-0.2,0.4C4,17.9,3.8,17.9,3.7,17.9z"/>
	<path class="st2" d="M10.1,17.9H5.8c-0.3,0-0.5-0.2-0.5-0.5c0-0.3,0.2-0.5,0.5-0.5h4.3c0.3,0,0.5,0.2,0.5,0.5
		C10.7,17.7,10.4,17.9,10.1,17.9z"/>
	<path class="st2" d="M20.3,9.9h-1.1c-0.3,0-0.5-0.2-0.5-0.5s0.2-0.5,0.5-0.5h1.1c0.3,0,0.5,0.2,0.5,0.5S20.6,9.9,20.3,9.9z"/>
	<path class="st2" d="M15.5,12.6H3.7c-0.3,0-0.5-0.2-0.5-0.5s0.2-0.5,0.5-0.5h11.8c0.3,0,0.5,0.2,0.5,0.5S15.8,12.6,15.5,12.6z"/>
	<path class="st2" d="M20.3,12.6h-3.2c-0.3,0-0.5-0.2-0.5-0.5s0.2-0.5,0.5-0.5h3.2c0.3,0,0.5,0.2,0.5,0.5S20.6,12.6,20.3,12.6z"/>
	<path class="st2" d="M5.8,15.2H3.7c-0.3,0-0.5-0.2-0.5-0.5s0.2-0.5,0.5-0.5h2.1c0.3,0,0.5,0.2,0.5,0.5S6.1,15.2,5.8,15.2z"/>
	<path class="st2" d="M13.3,15.2H8c-0.3,0-0.5-0.2-0.5-0.5s0.2-0.5,0.5-0.5h5.4c0.3,0,0.5,0.2,0.5,0.5S13.6,15.2,13.3,15.2z"/>
	<path class="st2" d="M20.3,15.2h-4.8c-0.3,0-0.5-0.2-0.5-0.5s0.2-0.5,0.5-0.5h4.8c0.3,0,0.5,0.2,0.5,0.5S20.6,15.2,20.3,15.2z"/>
	<path class="st3" d="M22.7,30.2H1.3c-0.4,0-0.8-0.4-0.8-0.8v-8.3h23v8.3C23.5,29.9,23.2,30.2,22.7,30.2z"/>
	<g>
		<path class="st4" d="M9.6,25.8c0,0.4,0,0.8-0.1,1.1s-0.2,0.6-0.4,0.8s-0.3,0.4-0.5,0.5c-0.2,0.1-0.4,0.2-0.5,0.3
			c-0.2,0.1-0.3,0.1-0.5,0.1c-0.1,0-0.2,0-0.3,0h-2v-5.4h1.6c0.5,0,0.9,0.1,1.2,0.2c0.3,0.1,0.6,0.3,0.9,0.6
			c0.2,0.2,0.4,0.5,0.5,0.8C9.5,25.1,9.6,25.5,9.6,25.8z M7,28c0.6,0,1-0.2,1.3-0.6s0.4-0.9,0.4-1.7c0-0.2,0-0.4-0.1-0.7
			c-0.1-0.2-0.2-0.4-0.3-0.6c-0.2-0.2-0.4-0.3-0.6-0.4s-0.6-0.2-1-0.2H6.1V28H7z"/>
		<path class="st4" d="M14.9,25.9c0,0.5-0.1,0.9-0.2,1.2c-0.1,0.3-0.3,0.6-0.5,0.9c-0.2,0.2-0.4,0.4-0.7,0.5s-0.6,0.2-0.9,0.2
			s-0.6-0.1-0.9-0.2s-0.5-0.3-0.7-0.5c-0.2-0.2-0.4-0.5-0.5-0.9c-0.1-0.3-0.2-0.7-0.2-1.2s0.1-0.9,0.2-1.2c0.1-0.3,0.3-0.6,0.5-0.9
			c0.2-0.2,0.4-0.4,0.7-0.5c0.3-0.1,0.6-0.2,0.9-0.2s0.6,0.1,0.9,0.2c0.3,0.1,0.5,0.3,0.7,0.5c0.2,0.2,0.4,0.5,0.5,0.9
			C14.9,25.1,14.9,25.5,14.9,25.9z M12.7,28c0.2,0,0.4,0,0.5-0.1c0.2-0.1,0.3-0.2,0.4-0.3c0.1-0.2,0.2-0.4,0.3-0.6
			c0.1-0.3,0.1-0.6,0.1-1c0-0.4,0-0.7-0.1-0.9c-0.1-0.3-0.2-0.5-0.3-0.6c-0.1-0.2-0.3-0.3-0.4-0.4c-0.2-0.1-0.3-0.1-0.5-0.1
			c-0.2,0-0.4,0-0.5,0.1c-0.2,0.1-0.3,0.2-0.4,0.3c-0.1,0.2-0.2,0.4-0.3,0.6c-0.1,0.3-0.1,0.6-0.1,1c0,0.4,0,0.7,0.1,0.9
			c0.1,0.3,0.2,0.5,0.3,0.6c0.1,0.2,0.3,0.3,0.4,0.4C12.3,27.9,12.5,28,12.7,28z"/>
		<path class="st4" d="M19.8,28.1c-0.2,0.2-0.4,0.3-0.7,0.4c-0.3,0.1-0.5,0.1-0.8,0.1c-0.3,0-0.6-0.1-0.9-0.2s-0.5-0.3-0.7-0.5
			c-0.2-0.2-0.4-0.5-0.5-0.9c-0.1-0.3-0.2-0.7-0.2-1.2s0.1-0.9,0.2-1.2c0.1-0.3,0.3-0.6,0.5-0.9c0.2-0.2,0.4-0.4,0.7-0.5
			c0.3-0.1,0.6-0.2,0.9-0.2c0.3,0,0.6,0,0.8,0.1c0.3,0.1,0.5,0.2,0.7,0.4l-0.6,0.5C19.1,24.1,19,24,18.8,24
			c-0.1-0.1-0.3-0.1-0.5-0.1c-0.2,0-0.4,0-0.5,0.1c-0.2,0.1-0.3,0.2-0.4,0.3c-0.1,0.2-0.2,0.4-0.3,0.6c-0.1,0.3-0.1,0.6-0.1,1
			c0,0.4,0,0.7,0.1,0.9c0.1,0.3,0.2,0.5,0.3,0.6c0.1,0.2,0.3,0.3,0.4,0.4c0.2,0.1,0.3,0.1,0.5,0.1s0.3,0,0.5-0.1
			c0.2-0.1,0.3-0.2,0.4-0.3L19.8,28.1z"/>
	</g>
</g>
</svg>
