<?xml version="1.0" encoding="utf-8"?>
<!-- Generator: Adobe Illustrator 20.0.0, SVG Export Plug-In . SVG Version: 6.00 Build 0)  -->
<svg version="1.1" id="Calque_1" xmlns="http://www.w3.org/2000/svg" xmlns:xlink="http://www.w3.org/1999/xlink" x="0px" y="0px"
	 viewBox="0 0 36 36" style="enable-background:new 0 0 36 36;" xml:space="preserve">
<style type="text/css">
	.st0{fill:#3700EB;}
</style>
<g>
	<g>
		<path class="st0" d="M28.5,36h-27c-0.5,0-0.9-0.2-1.1-0.6c-0.3-0.4-0.4-0.8-0.2-1.3l6.1-16.9c0.2-0.6,0.7-1,1.4-1h27
			c0.8,0,1.4,0.7,1.4,1.7l0,0.2L29.8,35C29.7,35.6,29.1,36,28.5,36z M7.6,17.3c-0.2,0-0.4,0.1-0.4,0.3L1,34.5c0,0.1,0,0.2,0.1,0.3
			C1.2,34.9,1.3,35,1.4,35h27c0.2,0,0.4-0.1,0.4-0.3L35,17.9c0-0.2-0.1-0.6-0.4-0.6H7.6z"/>
	</g>
	<g>
		<path class="st0" d="M15.6,10h-6c-0.3,0-0.5-0.2-0.5-0.5s0.2-0.5,0.5-0.5h6c0.3,0,0.5,0.2,0.5,0.5S15.9,10,15.6,10z"/>
	</g>
	<g>
		<path class="st0" d="M15.6,5.8h-6c-0.3,0-0.5-0.2-0.5-0.5c0-0.3,0.2-0.5,0.5-0.5h6c0.3,0,0.5,0.2,0.5,0.5
			C16.1,5.6,15.9,5.8,15.6,5.8z"/>
	</g>
	<g>
		<path class="st0" d="M24,14.3H9.6c-0.3,0-0.5-0.2-0.5-0.5s0.2-0.5,0.5-0.5H24c0.3,0,0.5,0.2,0.5,0.5S24.3,14.3,24,14.3z"/>
	</g>
	<g>
		<path class="st0" d="M28.1,10h-9.4V0.3l0.3-0.2c0.2-0.1,0.5,0,0.6,0.1l9,9l-0.1,0.4C28.5,9.9,28.3,10,28.1,10z M19.7,9.1h7.4
			l-7.4-7.4V9.1z"/>
	</g>
	<g>
		<path class="st0" d="M4.8,24V0h14.6l9.3,9.3v7.9H7.6c-0.2,0-0.4,0.1-0.4,0.3l0,0L4.8,24z M5.8,1v17.4l0.4-1c0.2-0.6,0.7-1,1.4-1
			h20.2V9.8L19,1H5.8z M6.7,17.5L6.7,17.5L6.7,17.5z"/>
	</g>
	<g>
		<g>
			<path class="st0" d="M32.4,17.3h-4.6v-6.4h3.1c0.9,0,1.5,0.7,1.5,1.5V17.3z M28.8,16.3h2.6v-3.9c0-0.3-0.2-0.5-0.5-0.5h-2.1V16.3
				z"/>
		</g>
		<g>
			<path class="st0" d="M1,34.5l-1,0V8.2c0-0.9,0.7-1.5,1.5-1.5h4.3l0,14.7L1,34.5z M1.5,7.6C1.2,7.6,1,7.9,1,8.2v23.3l3.8-10.5V7.6
				H1.5z"/>
		</g>
	</g>
</g>
</svg>
