<?xml version="1.0" encoding="utf-8"?>
<!-- Generator: Adobe Illustrator 19.2.1, SVG Export Plug-In . SVG Version: 6.00 Build 0)  -->
<svg version="1.1" id="Calque_1" xmlns="http://www.w3.org/2000/svg" xmlns:xlink="http://www.w3.org/1999/xlink" x="0px" y="0px"
	 viewBox="0 0 29 21" style="enable-background:new 0 0 29 21;" xml:space="preserve">
<style type="text/css">
	.st0{clip-path:url(#SVGID_2_);}
	.st1{fill:#3200E6;}
</style>
<g>
	<g>
		<defs>
			<rect id="SVGID_1_" width="29" height="21"/>
		</defs>
		<clipPath id="SVGID_2_">
			<use xlink:href="#SVGID_1_"  style="overflow:visible;"/>
		</clipPath>
		<g class="st0">
			<path class="st1" d="M10.5,21c-0.2,0-0.3-0.1-0.4-0.2l-9.9-9.9c-0.1-0.1-0.1-0.1-0.1-0.2c0-0.1,0-0.1,0-0.2l0,0c0,0,0,0,0,0
				c0,0,0,0,0,0l0,0c0,0,0,0,0,0l0,0c0,0,0,0,0,0c0-0.1,0-0.1,0-0.2c0,0,0,0,0,0l0,0c0-0.1,0.1-0.1,0.1-0.2v0l0,0l9.9-9.9
				c0.2-0.2,0.6-0.2,0.9,0s0.2,0.6,0,0.9L2.1,9.9h26.3c0.3,0,0.6,0.3,0.6,0.6s-0.3,0.6-0.6,0.6H2.1l8.9,8.9c0.2,0.2,0.2,0.6,0,0.9
				C10.8,20.9,10.7,21,10.5,21z"/>
		</g>
	</g>
</g>
</svg>
