<?xml version="1.0" encoding="utf-8"?>
<!-- Generator: Adobe Illustrator 20.0.0, SVG Export Plug-In . SVG Version: 6.00 Build 0)  -->
<svg version="1.1" id="Calque_1" xmlns="http://www.w3.org/2000/svg" xmlns:xlink="http://www.w3.org/1999/xlink" x="0px" y="0px"
	 viewBox="0 0 27 19" style="enable-background:new 0 0 27 19;" xml:space="preserve">
<style type="text/css">
	.st0{fill:#3200E6;}
</style>
<g>
	<g>
		<path class="st0" d="M26.5,10h-26C0.2,10,0,9.8,0,9.5S0.2,9,0.5,9h26C26.8,9,27,9.2,27,9.5S26.8,10,26.5,10z"/>
	</g>
	<g>
		<path class="st0" d="M0.5,10c-0.1,0-0.2,0-0.3-0.1c-0.2-0.2-0.2-0.5,0-0.7l9.3-9c0.2-0.2,0.5-0.2,0.7,0s0.2,0.5,0,0.7l-9.3,9
			C0.7,9.9,0.6,10,0.5,10z"/>
	</g>
	<g>
		<path class="st0" d="M9.7,19c-0.1,0-0.2,0-0.3-0.1l-9.3-9c-0.2-0.2-0.2-0.5,0-0.7C0.3,9,0.6,9,0.8,9.2l9.3,9
			c0.2,0.2,0.2,0.5,0,0.7C10,18.9,9.8,19,9.7,19z"/>
	</g>
</g>
</svg>
