<?xml version="1.0" encoding="utf-8"?>
<!-- Generator: Adobe Illustrator 20.0.0, SVG Export Plug-In . SVG Version: 6.00 Build 0)  -->
<svg version="1.1" id="Calque_1" xmlns="http://www.w3.org/2000/svg" xmlns:xlink="http://www.w3.org/1999/xlink" x="0px" y="0px"
	 viewBox="0 0 15 21" style="enable-background:new 0 0 15 21;" xml:space="preserve">
<style type="text/css">
	.st0{fill:#706E6E;}
	.st1{fill:#3700EB;}
</style>
<g>
	<g>
		<path class="st0" d="M7.6,10C6,10,4.8,8.8,4.8,7.3S6,4.6,7.6,4.6s2.8,1.2,2.8,2.7S9.1,10,7.6,10z M7.6,5.5c-1,0-1.9,0.8-1.9,1.8
			s0.8,1.8,1.9,1.8s1.9-0.8,1.9-1.8S8.6,5.5,7.6,5.5z"/>
	</g>
	<g>
		<path class="st0" d="M7.5,21l-6-8.5C-0.7,9.6-0.4,4.7,2.2,2.2c2.9-2.9,7.7-2.9,10.6,0c2.6,2.6,2.9,7.4,0.7,10.3L7.5,21z M7.5,0.9
			c-1.7,0-3.4,0.6-4.6,1.9c-2.3,2.3-2.6,6.5-0.6,9.1l5.3,7.4l5.2-7.4c2-2.6,1.7-6.9-0.6-9.2C10.9,1.5,9.2,0.9,7.5,0.9z"/>
	</g>
</g>
<g>
	<g>
		<g>
			<path class="st1" d="M34.8,7.4c-0.2,0-0.4-0.2-0.5-0.4c0-0.3,0.1-0.5,0.4-0.6c1-0.1,1.9,0,2,0c0.3,0,0.5,0.3,0.4,0.6
				c0,0.3-0.3,0.5-0.6,0.4C36.6,7.4,35.7,7.3,34.8,7.4C34.9,7.4,34.9,7.4,34.8,7.4z"/>
		</g>
		<g>
			<path class="st1" d="M27.2,6.7c-0.3,0-0.5-0.2-0.5-0.5c0-1.3-1.1-2.4-2.4-2.4s-2.4,1.1-2.4,2.4c0,0.3-0.2,0.5-0.5,0.5
				s-0.5-0.2-0.5-0.5c0-1.9,1.5-3.4,3.4-3.4c1.9,0,3.4,1.5,3.4,3.4C27.7,6.5,27.5,6.7,27.2,6.7z"/>
		</g>
		<g>
			<path class="st1" d="M35.9,15.5h-1.4c-0.3,0-0.5-0.2-0.5-0.5s0.2-0.5,0.5-0.5h1.4c1.9,0,3.5-1.6,3.5-3.6c0-1.7-1.2-3.2-2.9-3.5
				l-0.4-0.1l0-0.4c0-3-2.4-5.4-5.3-5.4c-1.8,0-3.6,1-4.5,2.5l-0.3,0.4l-0.4-0.3c-0.4-0.3-0.9-0.4-1.3-0.4c-1.3,0-2.4,1.1-2.4,2.4
				v0.7L21.6,7c-1.3,0.6-2.3,2.2-2.3,3.6c0,2.1,1.7,3.9,3.8,3.9H25c0.3,0,0.5,0.2,0.5,0.5s-0.2,0.5-0.5,0.5h-1.9
				c-2.6,0-4.8-2.2-4.8-4.9c0-1.8,1-3.5,2.5-4.4l0-0.1c0-1.9,1.5-3.4,3.4-3.4c0.5,0,1,0.1,1.5,0.3c1.2-1.6,3.1-2.5,5.1-2.5
				c3.3,0,6,2.6,6.2,6c1.9,0.6,3.3,2.4,3.3,4.4C40.4,13.5,38.4,15.5,35.9,15.5z"/>
		</g>
		<g>
			<path class="st1" d="M29.8,19.5c-0.3,0-0.5-0.2-0.5-0.5v-8.4c0-0.3,0.2-0.5,0.5-0.5c0.3,0,0.5,0.2,0.5,0.5V19
				C30.3,19.3,30,19.5,29.8,19.5z"/>
		</g>
		<g>
			<path class="st1" d="M29.8,19.5c-0.1,0-0.3,0-0.3-0.1l-2.9-2.9c-0.2-0.2-0.2-0.5,0-0.7s0.5-0.2,0.7,0l2.9,2.9
				c0.2,0.2,0.2,0.5,0,0.7C30,19.5,29.9,19.5,29.8,19.5z"/>
		</g>
		<g>
			<path class="st1" d="M29.8,19.5c-0.1,0-0.3,0-0.3-0.1c-0.2-0.2-0.2-0.5,0-0.7l2.9-2.9c0.2-0.2,0.5-0.2,0.7,0
				c0.2,0.2,0.2,0.5,0,0.7l-2.9,2.9C30,19.5,29.9,19.5,29.8,19.5z"/>
		</g>
	</g>
</g>
<g>
	<g>
		<g>
			<path class="st0" d="M-10.1,9.9c-0.2,0-0.4-0.2-0.5-0.4c0-0.3,0.1-0.5,0.4-0.6c1-0.1,1.9,0,2,0c0.3,0,0.5,0.3,0.4,0.6
				c0,0.3-0.3,0.5-0.6,0.4C-8.4,9.9-9.2,9.7-10.1,9.9C-10.1,9.9-10.1,9.9-10.1,9.9z"/>
		</g>
		<g>
			<path class="st0" d="M-17.7,9.1c-0.3,0-0.5-0.2-0.5-0.5c0-1.3-1.1-2.4-2.4-2.4S-23,7.3-23,8.6c0,0.3-0.2,0.5-0.5,0.5
				S-24,8.9-24,8.6c0-1.9,1.5-3.4,3.4-3.4c1.9,0,3.4,1.5,3.4,3.4C-17.2,8.9-17.5,9.1-17.7,9.1z"/>
		</g>
		<g>
			<path class="st0" d="M-9,18h-1.4c-0.3,0-0.5-0.2-0.5-0.5s0.2-0.5,0.5-0.5H-9c1.9,0,3.5-1.6,3.5-3.6c0-1.7-1.2-3.2-2.9-3.5
				l-0.4-0.1l0-0.4c0-3-2.4-5.4-5.3-5.4c-1.8,0-3.6,1-4.5,2.5l-0.3,0.4l-0.4-0.3c-0.4-0.3-0.9-0.4-1.3-0.4C-22,6.2-23,7.3-23,8.6
				v0.7l-0.3,0.1c-1.3,0.6-2.3,2.2-2.3,3.6c0,2.1,1.7,3.9,3.8,3.9h1.9c0.3,0,0.5,0.2,0.5,0.5s-0.2,0.5-0.5,0.5h-1.9
				c-2.6,0-4.8-2.2-4.8-4.9c0-1.8,1-3.5,2.5-4.4l0-0.1c0-1.9,1.5-3.4,3.4-3.4c0.5,0,1,0.1,1.5,0.3C-18,4-16,3-14.1,3
				c3.3,0,6,2.6,6.2,6c1.9,0.6,3.3,2.4,3.3,4.4C-4.6,15.9-6.6,18-9,18z"/>
		</g>
		<g>
			<path class="st0" d="M-15.2,22c-0.3,0-0.5-0.2-0.5-0.5v-8.4c0-0.3,0.2-0.5,0.5-0.5c0.3,0,0.5,0.2,0.5,0.5v8.4
				C-14.7,21.8-14.9,22-15.2,22z"/>
		</g>
		<g>
			<path class="st0" d="M-15.2,22c-0.1,0-0.3,0-0.3-0.1l-2.9-2.9c-0.2-0.2-0.2-0.5,0-0.7s0.5-0.2,0.7,0l2.9,2.9
				c0.2,0.2,0.2,0.5,0,0.7C-14.9,22-15.1,22-15.2,22z"/>
		</g>
		<g>
			<path class="st0" d="M-15.2,22c-0.1,0-0.3,0-0.3-0.1c-0.2-0.2-0.2-0.5,0-0.7l2.9-2.9c0.2-0.2,0.5-0.2,0.7,0
				c0.2,0.2,0.2,0.5,0,0.7l-2.9,2.9C-14.9,22-15.1,22-15.2,22z"/>
		</g>
	</g>
</g>
</svg>
