<?xml version="1.0" encoding="utf-8"?>
<!-- Generator: Adobe Illustrator 20.0.0, SVG Export Plug-In . SVG Version: 6.00 Build 0)  -->
<svg version="1.1" id="Calque_1" xmlns="http://www.w3.org/2000/svg" xmlns:xlink="http://www.w3.org/1999/xlink" x="0px" y="0px"
	 viewBox="0 0 15 21" style="enable-background:new 0 0 15 21;" xml:space="preserve">
<style type="text/css">
	.st0{fill:#FFFFFF;}
</style>
<g>
	<g>
		<path class="st0" d="M7.6,10C6,10,4.8,8.8,4.8,7.3S6,4.6,7.6,4.6s2.8,1.2,2.8,2.7S9.1,10,7.6,10z M7.6,5.5c-1,0-1.9,0.8-1.9,1.8
			s0.8,1.8,1.9,1.8s1.9-0.8,1.9-1.8S8.6,5.5,7.6,5.5z"/>
	</g>
	<g>
		<path class="st0" d="M7.5,21l-6-8.5C-0.7,9.6-0.4,4.7,2.2,2.2c2.9-2.9,7.7-2.9,10.6,0c2.6,2.6,2.9,7.4,0.7,10.3L7.5,21z M7.5,0.9
			c-1.7,0-3.4,0.6-4.6,1.9c-2.3,2.3-2.6,6.5-0.6,9.1l5.3,7.4l5.2-7.4c2-2.6,1.7-6.9-0.6-9.2C10.9,1.5,9.2,0.9,7.5,0.9z"/>
	</g>
</g>
</svg>
