<?xml version="1.0" encoding="utf-8"?>
<!-- Generator: Adobe Illustrator 20.0.0, SVG Export Plug-In . SVG Version: 6.00 Build 0)  -->
<svg version="1.1" id="Calque_1" xmlns="http://www.w3.org/2000/svg" xmlns:xlink="http://www.w3.org/1999/xlink" x="0px" y="0px"
	 viewBox="0 0 110 42.3" style="enable-background:new 0 0 110 42.3;" xml:space="preserve">
<style type="text/css">
	.st0{fill:#FFFFFF;}
</style>
<g>
	<path class="st0" d="M23.4,0.1c-0.1,0.2-0.1,0.4-0.2,0.4c-0.3,0.5-0.6,1.2-0.9,1.7c-0.1,0.3-0.3,0.6-0.5,0.8c0,0.2-0.8,1.5-0.9,2
		c-0.2,0.7-0.8,1.2-1.1,1.8C19.4,7.4,19,7.7,18.6,8c-0.3,0.3-0.6,0.6-0.9,0.9c-0.1,0.1,0.1,0.2,0.1,0.3c0.4,0.2,0.7,0.6,1,0.9
		c0.3,0.2,0.6,0.5,0.8,0.8c0.3,0.4,0.7,0.7,1,1.1c0.3,0.4,0.5,0.8,0.8,1.2c0.3,0.3,0.3,0.7,0.6,1c0.4,0.1,0.6-0.3,0.8-0.6
		c0.4-0.3,0.9-0.7,1.3-1.1c1.8-1.6,3.3-3.1,5-4.7c0.3-0.2,0.5-0.5,0.8-0.6c0.1,0.1,0.2,0.2,0.2,0.3c-0.1,0.4-0.1,0.8-0.2,1.1
		c-0.4,1.1-0.8,2.1-1.2,3.2c-0.1,0.3-0.3,0.5-0.4,0.8c-0.1,0.1-0.2,0.4-0.3,0.6c-0.2,0.2-0.2,0.5-0.4,0.7c-0.3,0.1-0.3,0.4-0.4,0.6
		c-0.1,0.2-0.4,0.6-0.5,0.8c-0.4,0.4-1.2,1-1.2,1c-0.6,0.5-1.4,0.7-2,1c-0.2,0.1-0.5,0.2-0.8,0.3c-0.6,0-1.1,0.1-1.7,0.1
		c-0.2,0-0.5,0-0.6,0.2c-0.2,0.6-0.3,1.9-0.3,1.9c0,0.3-0.1,0.5,0,0.8c-0.1,0.5-0.1,1.1-0.2,1.6c0,0.1-0.2,2.4-0.3,3.4
		c-0.1,0.2,0,0.4-0.1,0.5c0,0.7-0.1,1.4-0.1,2c-0.1,0.5-0.2,1.1-0.2,1.6c-0.2,0.3-0.4,1.3-0.4,1.4c-0.1,0.1-0.2,0.3-0.4,0.4
		c-0.1,0-0.1,0-0.2,0.1c-0.1,0-0.1-0.1-0.2-0.2c-0.2-0.8-0.4-1.5-0.7-2.2c-0.1-0.2-0.1-0.5-0.2-0.8c-0.3-0.6-0.3-1.4-0.4-2
		c-0.1-1.1-0.3-2.3-0.3-3.4c0-0.7,0-1.3,0-2c0-0.7,0.2-1.5,0.3-2.2c0-0.8,0.3-1.7,0.2-2.5c0-0.3-0.1-0.3-0.2-0.5
		c-0.1-0.2-0.3-0.4-0.5-0.6c-1.1-0.8-2-1.8-2.9-2.7c-0.1-0.1-0.2-0.1-0.4-0.2c-0.5,0.3-0.9,0.6-1.4,0.9c-1,0.6-2,1.3-2.9,2
		c-0.6,0.3-1.1,0.9-1.7,1c-0.2,0.1-0.5,0.2-0.7,0.4c-1.1-0.1-3.2,0-3.2,0c-0.2,0-0.4,0.1-0.6,0c-0.2-0.1-0.2-0.1-0.4-0.3
		c0.1-0.2,0.1-0.3,0.3-0.4c0.7-0.1,1.5-0.4,2.1-0.8c0.5-0.2,1-0.5,1.4-0.9c0.1-0.2,0.3-0.3,0.5-0.4c0.2-0.4,0.6-0.6,0.9-1
		c0.3-0.6,0.9-0.9,1.2-1.5c0.6-0.6,1.1-1.3,1.8-1.8c0.5-0.3,1-0.3,1.6-0.5c0.9-0.3,1.8-0.5,2.7-0.9c0.4-0.4,0.8-0.9,1.1-1.3
		c1-1.1,2.2-1.7,3.4-2.8c0.5-0.5,1.1-1.3,1.6-1.8c0.4-0.6,1.1-1.5,1.7-2.3c-0.2,0-0.5,0-0.7,0C9.5,0,0,9.5,0,21.2
		c0,6.4,2.9,12.2,7.4,16.1c0.1-0.2,0.2-0.3,0.3-0.3c-0.6-1.9-2-3.4-2.1-5.3c-0.1-1.5-0.3-2.8-0.2-4.2c0.2-1.3,0.3-2.7,0.8-3.9
		c1-1.8,2.3-3.6,3.6-5.3L9.9,18c0,0,0.5,0.1,0.7,0.3c0.1,0.1,0,0.3,0.1,0.4c0,0-0.1,0.4-0.1,0.6c0,0.3-0.2,0.6-0.2,0.9
		c-0.2,0.2-0.5,0.9-0.6,1.2l-0.1,0.2c-0.4,1.1-1,2.2-1.3,3.3c-0.1,0.7-0.1,1.3-0.1,2c0,0.5,0,1,0,1.4c0.1,0.7,0.2,1.3,0.4,2
		c0.2,0.4,0.2,0.6,0.4,1c0.2,0.7,0.4,1.4,0.7,2c0.1,0.1,0.1,0.7,0.5,0.8c0.4,0,0.7,0.1,1.1,0c0.3,0.1,0.7,0.1,1,0.1
		c1.6,0.2,3.2,0.1,4.8,0.1c0.8-0.1,1.5-0.3,2.3-0.4c0.6,0,1.2,0,1.9,0c0.3-0.1,0.8-0.1,1.1-0.1c0.5,0.1,1.1-0.1,1.5,0
		c0.7,0.1,1.5,0.1,2.2,0.1c0.1,0,0.1,0.1,0.1,0.2c-0.2,0.1,0,0.4-0.2,0.5c-1.1,0.5-2.2,0.9-3.2,1.4l-0.1,0.1c-0.8,0.5-1.7,0.5-2.4,1
		c-0.2,0-0.4,0.1-0.6,0.1c-0.4,0.1-0.7,0.2-1.1,0.3c-1.7,0.3-3.4,0.7-5.1,1c0,0-0.4,0.3-0.5,0.4c-0.1,0-0.1,0.2-0.2,0.3
		c-0.2,0.4-0.2,0.8-0.2,1.2c2.6,1.1,5.5,1.8,8.5,1.8c5.4,0,10.4-2,14.1-5.4c0-0.8-0.4-1.9-0.5-2.5c-0.8-1.2-1.2-2.5-2-3.7
		c-0.2-0.6-0.6-1.1-0.7-1.7c-0.2-0.2-0.2-0.6-0.4-0.8c-0.6,0-1.3,0.2-1.9,0.2c-0.2,0.2-0.6,0.2-0.8,0.3c-0.3-0.1-0.6,0.1-0.9,0
		c-0.6,0.1-2,0.2-2.1,0.3c-0.6,0.1-1.2,0.1-1.8,0.3c-0.3,0-0.4,0.1-0.7,0.1c-0.4,0-0.6-0.1-0.9-0.1c-0.4,0.2-0.8,0.1-1.3,0.2
		c-0.1-0.1-0.3-0.2-0.3-0.4c0-0.1-0.1-0.2,0-0.3c0.4-0.1,0.7-0.4,1.1-0.4c0.1-0.1,0.6-0.1,0.6-0.2c0.9-0.4,1.9-0.5,2.7-1
		c0.3,0,0.5-0.2,0.8-0.2c1.2-0.4,2.2-0.9,3.4-1.4c1.6-0.4,2.9-1.2,4.4-1.7c0.3,0,0.6-0.2,0.8-0.4c0.3-0.4,0.5-0.9,0.8-1.3
		c0.5-0.6,0.7-1.4,1.4-2c0.2-0.3,0.3-0.6,0.5-0.9c0-0.4-0.2-0.8-0.4-1.2c-0.4-0.5-0.8-1.1-1-1.7c-0.7-0.9-1-2.1-1.2-3.2
		c-0.3-0.4-0.7-0.6-1-0.9h0c-0.3-0.2-0.4-0.3-0.6-0.5c-0.4-0.3-0.6-0.7-1-1.1c-0.3-0.2-0.4-0.7-0.5-1c0.6-0.1,1.1,0,1.6-0.1
		c0.2,0.1,0.5-0.1,0.7,0.1c0.3,0.3,0.5,0.7,0.7,1.1c1.5,2.2,3.3,3.9,4.9,6c0.3,0.2,0.2,0.6,0.3,0.8c0.1,0.5,0.2,1.1,0.2,1.7
		c0.2,1.1-0.2,2.1-0.2,3.2c0,0-0.3,2.5-0.4,3.6c-0.2,0.9-0.2,1.9-0.5,2.9c-0.1,0.6-0.3,1.2-0.5,1.8c0.1,0.3-0.2,0.4-0.1,0.8
		c0.1,0.1,0.6,0.3,1,0.5c1.9-3.2,2.9-6.8,2.9-10.8C42.3,10.2,34.1,1.2,23.4,0.1z M13.2,3.9c0.3-0.2,0.5,0.1,0.8,0.2
		c0.2,0.3,0.3,0.8,0.4,1.1c0.3,0.4-0.1,0.8-0.1,1.2c-0.1,0.3-0.3,0.6-0.5,0.8c-0.3,0.1-0.5,0.4-0.9,0.2c-0.1,0-0.3-0.1-0.4-0.1
		c-0.3-0.2-0.9-0.1-0.9-0.6c-0.1-0.7-0.5-1.3-0.5-2C11.6,4,12.6,4.3,13.2,3.9z M14.2,29.8c-0.3,0.5-0.4,1-0.7,1.5
		c0,0.1-0.1,0.1-0.2,0.2c-0.1,0.1-0.2,0.2-0.4,0.2c-0.3-0.1-0.5,0.1-0.7-0.1c-0.3-0.3-0.5-0.7-0.6-1.1c-0.2-0.7,0.1-1.3,0.1-1.9
		c0.1-0.4,0.3-0.8,0.5-1.1c0.1-0.2,0.1-0.4,0.3-0.5c0.1-0.1,0.2-0.1,0.3-0.1c0.3,0,0.6-0.2,0.9,0.1c0,0.2,0.2,0.3,0.3,0.4
		c0.1,0.6,0.4,1.2,0.4,1.7C14.3,29.3,14.2,29.5,14.2,29.8z M32.1,16.7L32.1,16.7c0.5,0.3,0.9,0.3,1.3,0.4c0.5,0.1,0.8,0.5,1.1,0.9
		c0.1,0.4,0.1,0.8,0.1,1.2c0,0.6,0.5,1.7-0.5,1.9c-0.5,0-0.9-0.2-1.4-0.4c-0.2,0-0.5-0.3-0.6-0.4c-0.7-0.3-0.5-1.2-0.8-1.8
		c0-0.4-0.1-0.8-0.2-1.3c0-0.2,0.1-0.3,0.1-0.5C31.4,16.6,31.7,16.6,32.1,16.7z"/>
	<path class="st0" d="M55.1,22.1h2.1v2.2c-0.6,0.3-1.4,0.5-2.3,0.5c-2,0-3.4-1.5-3.4-3.7c0-2,1.4-3.5,3.4-3.5c1,0,2,0.4,2.6,1
		l0.1,0.1l1.6-1.6l-0.1-0.1c-1-0.9-2.4-1.3-4.2-1.3c-3.3,0-5.6,2.3-5.6,5.6c0,3.2,2.3,5.5,5.6,5.5c1.6,0,3-0.3,4.3-1l0.1,0v-5.5
		h-4.2V22.1z M64.5,22h4.7v-1.9h-4.7v-2.2h5v-1.9h-7.1v10.6h7.4v-1.9h-5.2V22z M77.6,15.6c0,0-0.1,0-0.1,0c-3.3,0-5.6,2.3-5.6,5.6
		c0,3.2,2.3,5.5,5.6,5.5h0c3.4-0.1,5.6-2.3,5.6-5.6C83.1,17.8,80.9,15.6,77.6,15.6z M77.5,24.8c-2,0-3.4-1.5-3.4-3.7
		c0-2,1.4-3.5,3.4-3.5c2,0,3.4,1.5,3.4,3.5C80.9,23.3,79.5,24.8,77.5,24.8z M89.9,15.9h-4.2v10.6h4c2.7,0,5.6-1.9,5.6-5.3
		C95.3,17.5,92.6,15.9,89.9,15.9z M89.1,24.5h-1.2v-6.7h1.5c1.7,0,3.7,0.6,3.7,3.3C93.1,24.2,90.3,24.5,89.1,24.5z M97.9,26.4h2.1
		V15.9h-2.1V26.4z M106.9,20.1c-1-0.3-1.8-0.6-1.8-1.4c0-0.9,0.8-1.2,1.5-1.2c0.7,0,1.4,0.3,1.7,0.8l0.1,0.1l1.6-1.6l-0.1-0.1
		c-1-0.9-2.2-1.1-3-1.1c-2,0-3.9,1-3.9,3.3c0,2.2,1.7,2.7,3,3.1c1,0.3,1.9,0.6,1.9,1.5c0,0.8-0.9,1.3-1.7,1.3c-0.8,0-1.5-0.4-1.9-1
		l-0.1-0.1l-1.6,1.5l0.1,0.1c1,1.2,2.4,1.4,3.5,1.4c2.4,0,3.9-1.3,3.9-3.4C110,21.1,108.3,20.5,106.9,20.1z"/>
</g>
</svg>
