<?xml version="1.0" encoding="utf-8"?>
<!-- Generator: Adobe Illustrator 20.0.0, SVG Export Plug-In . SVG Version: 6.00 Build 0)  -->
<svg version="1.1" id="Calque_1" xmlns="http://www.w3.org/2000/svg" xmlns:xlink="http://www.w3.org/1999/xlink" x="0px" y="0px"
	 viewBox="0 0 63 63" style="enable-background:new 0 0 63 63;" xml:space="preserve">
<style type="text/css">
	.st0{fill:#838385;}
</style>
<g>
	<g>
		<circle class="st0" cx="37.1" cy="5.8" r="0.7"/>
		<circle class="st0" cx="27.3" cy="4.6" r="0.6"/>
		<path class="st0" d="M19.9,20.3L19.6,20c0.8-0.8,1.7-2,1.9-2.7c0.1-0.7,1.1-0.6,0.9,0.2C22.2,18.3,21,19.5,19.9,20.3z"/>
		<path class="st0" d="M13.7,5.4c-1.5,0.7-1.8,2.2-0.7,3.2c1.3,1.1,3.5,0.1,3.2-1.6c1.7,0.1,2.9-1.7,2.6-3c0.8-0.7,0.9-2.1-0.1-2.7
			c-1-0.6-1.9-0.4-2.5,0.8C14.6,2.1,13.1,3.3,13.7,5.4l-0.7-0.3c-1-2,0.7-4.1,2.8-3.7c0.4-1,2-2.1,3.7-1c1.3,0.8,1.6,2.9,0.2,3.9
			c0.7,2-0.7,3.6-2.7,3.4c-0.2,2.5-2.6,2.9-4.2,1.7c-0.9-0.7-1.2-1.6-1.4-2.3c-0.2-0.8-0.2-1.4-0.9-2.2C9.9,4.3,8.9,4.3,8.9,4.3
			c0-1.8-1.7-3.5-3.9-2.7C4.3,1,3.3,0.9,2.7,1.7C2.3,2.2,2.1,3.4,3.3,4C3.2,5.6,4.5,6.7,6.4,6.6c0.1,0.9,1.1,1.7,1.9,1.8l0,0.4
			c-0.9-0.1-1.4,0.2-2.1,1C4,9.8,2.5,10.7,2.6,12.3c-1.5,0.3-1.8,1.9-1,2.8c0.9,0.9,2.2,0.5,2.6-0.5c1.6,0.3,2.9-0.8,3-2.1
			c1.5,0,2.1-0.6,2.3-1.9l0.5,0c0.2,1.4-0.5,2.8-2.2,2.6c0,1.7-1.7,2.7-3.3,2.1c-0.7,1.4-2.4,1.9-3.8,0.6c-1.3-1.3-0.9-3.5,0.9-4
			c0-1.7,1.3-3.3,3.7-2.7c0,0,0.3-0.8,1.1-0.8c-0.5-0.2-0.9-0.5-1-1c-1.8,0.4-3.4-1.3-3-3C0.9,3.6,0.8,1.9,1.6,1
			c0.8-1,2.3-1.2,3.5-0.1c2.1-1.2,4.6,0.3,4.4,2.7c1.5-0.1,2.4,1.2,2.2,2.6c0.2-0.6,0.5-0.9,1.1-1L13.7,5.4z"/>
		<path class="st0" d="M17.4,2.5l0.4,0.3c-0.7,1.5-1.9,3.1-3,3.9l-0.4-0.3C15.1,5.2,16.7,3.1,17.4,2.5z"/>
		<path class="st0" d="M6.9,10.7L7.1,11c-0.9,0.9-2.5,2.1-3.4,2.6l-0.3-0.4C4.2,12.3,5.8,11.1,6.9,10.7z"/>
		<path class="st0" d="M9,6.3L8.6,6.8C7.4,6,5.1,4,4.6,3.2l0.4-0.4C6.1,3.4,8.2,5.4,9,6.3z"/>
		<path class="st0" d="M6.8,25.7c0.1,0.7,0,1.4,0.6,2.1c0.2,0.3,1.4,1.8,2.2,2.6c-1.1,0.5-3.4,1.4-5.1,1.6c-0.3,0-0.7,0.3-1,0.5
			c-0.2,0.4-0.4,1-0.5,1.7C3,34.7,3,35.3,3,35.9C3,36.4,3.3,38,3.8,39c0.6,1.1,1.1,1.6,1.8,1.9c0.1-0.1,0.4-0.1,0.9-0.1
			c1.2,0,2.2,0.7,2.7,1.3c0.2,0.2,0.5,0.3,0.9,0.3c1,0,2.1-0.3,3.2-0.7c0.2-0.2,0.9-0.6,1.5-1.1c0.6-0.5,4.1-3.4,5.6-4.2
			c0.8,0.4,2.1,1,3.5,1c0.1,0,0.3,0,0.6-0.1c0.4-0.1,1-0.3,1.7-0.4c1.2-0.2,2.7-0.5,3.1-0.4c1.1,0,4.5,0.1,5.3,0.1
			c0.8,0,2-0.1,2.5-0.1c0.7-0.2,2.3-0.7,3.7-1.3c1.5-0.7,4.6-2.8,5.1-3.3c0.2-0.2,0.5-0.5,0.6-0.7c0.1-0.1,0.1-0.1,0.1-0.2
			c0-0.1,0-2.2,0-2.2s0.7-0.8,1-1.1c0,0,0-0.1,0-0.1c-0.1-0.4-0.3-1.8-0.2-3.1L46.7,24c0,1.7-0.6,3.1-1.2,4c-1.1,0.2-3.3,0.8-4,1.7
			l0.4,0.1c0.7-0.4,1.5-0.7,2.4-0.7c0.8,0,1.1,0.2,1.1,0.4c0,0.2-0.1,0.5-0.2,0.6c-0.1,0.1-0.1,0.3-0.2,0.5c-1.1,1.2-2.3,2.1-3.7,3
			c-1,0.6-1.9,0.9-3.4,1.3c-0.4,0.1-1,0.3-1.4,0.4c-0.5,0-3.4-0.1-5.1-0.1s-5.1,0.2-6.2,0.5c-0.5,0.1-0.6,0.3-1.2,0.3
			c-1.1,0-2.5-0.5-3.4-1c-0.1,0-0.4,0.2-0.8,0.3c-0.6,0.3-2,2.2-2.8,1.6c-0.4,0.8-2.2,1.6-2.8,2.5c0.1-0.5,0.8-3.4,0.8-4
			c0-0.1,0-0.2,0-0.3c-0.6-1.1-2.4-1.8-3.5-2c-0.3-0.1-0.4-0.1-0.6-0.1l-1.6-0.5l-1.5,0.5l1.7,0.3L7.4,35c0.4-0.1,2.7-0.8,2.9-0.8
			c0.2-0.1,0.4-0.1,0.7,0c0.3,0.1,1.2,0.3,1.8,0.5c0.3,0.1,0.8,0.7,1,1c0.1,0.1,0.1,0.4,0.1,1c0,0.4-0.1,0.9-0.2,1.3
			c-0.2,1.1-0.7,1.9-0.9,2.2c-0.2,0.4-0.5,0.5-0.8,0.7c-0.5,0.2-1.1,0.4-1.7,0.4c-0.4,0-0.7,0-0.9-0.3c-0.6-0.8-2.1-1.6-3.6-1.3
			C4.9,39.1,4,37.3,4,35.9C4,35,4.4,33.7,4.6,33c1.5-0.2,4.5-1.3,5.9-2c0.3,0,1.1-0.3,1.9-0.3c2,0,3.9,1.7,5.1,2.9
			c0.2-0.3,0.6-0.8,1.6-0.8c1.4,0,2.2,1.3,2.6,2.6l0.7-0.5c-0.1-0.7-0.5-1.6-1.1-2.1c-0.5-0.5-1.4-0.9-2.1-0.9
			c-0.4,0-0.9,0.1-1.2,0.1c-1,0-1.4-0.4-2.1-0.9c-0.8-0.5-2.3-1.3-3.3-1.3c-0.7,0-1,0.3-1.5,0.3c-0.8,0-1.1-0.3-1.5-0.8
			c-0.2-0.2-1-0.9-1.2-1.2C8.3,27.6,8,26.9,8,26.6L6.8,25.7z"/>
		<path class="st0" d="M8,26.6c0.2,0.3,0.5,0.5,0.8,0.8c0.3,0.2,0.6,0.4,1,0.6c0.5,0.3,1,0.6,1.6,0.8c0.5,0.1,1.1,0.2,1.7,0.2
			c0.8,0,1.8-0.2,2.6,0.2c0.5,0.3,0.6,0.8,1,1c0.7,0.3,2.5,0.3,3.5,0.3c2,0,4.2-0.3,5.5-0.6L25,29.1c-0.9,0.1-3.5,0.4-4.7,0.4
			c-1.7,0-3.3-0.3-3.3-1c0-0.5,0.5-1.2,1.5-1.2c1.1,0,2.7,0.7,3,0.7c0.3,0.1,0.4,0.1,0.6,0l0.6-0.3c-0.8-0.4-3.7-1.4-4.7-1.4
			c-0.5,0-0.7,0.1-1,0.5c-0.4,0.5-1.4,1-3.1,1c-0.9,0-2.2-0.2-2.5-0.3c-0.5-0.2-1.5-0.8-2.1-1.2c-0.8-0.6-1.5-1.2-2-2
			C7.1,24.1,7,23.8,7,23.6c0-0.2,0.1-0.4,0.1-0.5c0.1,0.2,0.3,0.3,0.5,0.5c0.9,0.9,2.2,1.5,3.5,1.7c0.4,0.1,0.7,0.1,1.1,0.1
			c0.6,0,1.1-0.3,1.4-0.6l-0.5-0.6c-0.2,0.1-0.5,0.1-0.7,0.1c-1.9,0-4.4-1.3-4.9-2.7c-0.1-0.1-0.1-0.2-0.1-0.4
			c0.1-0.1,0.1-0.4,0.2-0.7c0.1,0.1,0.3,0.3,0.6,0.5c0.7,0.5,2.1,1.1,2.3,1.3c0.7-0.2,1.2-0.4,1.6-0.6c0.4-0.2,0.9-0.4,1.6-0.4
			c1.4,0,3,0.8,4.5,1.6l1-0.4c-1.3-0.9-4.3-2.3-5.9-2.3c-1,0-1.9,0.7-2.5,0.7c-0.8,0-3.1-1.1-3.1-2c0-0.7,1.5-1.1,3.8-1.4
			c-0.4,0.6-0.8,1.2-1.2,1.9l0.6,0.3c3.7-5.4,7.5-8.8,10.8-10.9c1.2-0.8,1.4-1.2,1.9-2.1c1-2,1.9-3.6,3.6-3.6c0.8,0,1.4,0.4,1.8,1
			l1.2,0.4L29,5.2l1.2,0.5c-1.6,0.5-3.8,2-4.7,4.3c-1.7,0.1-2.5,1.5-3.1,2.6c-0.4,0.8-1,1.1-1.9,1.7l-7,4.9l1,0.1l6.5-4.3
			c1.3-0.9,1.9-1.5,2.2-2.1c0.6-1.2,1.2-2.1,2.5-2.1c0.6,0,1.3,0.3,1.8,0.8l1.1,0.4l-1.2,0.8l1,0.6c-3,0.9-4.8,3.1-5.9,7.1l0.8,0.2
			c0.4-1.3,0.8-2.6,1.5-3.7c1.7,0,3.5-0.1,5.2-0.1c4.6,0,8.3,0.2,10.4,0.8l-0.7-1.3c-2.2-0.4-5.3-0.6-9.6-0.6
			c-1.4,0-2.9,0.1-4.4,0.1c0.9-1,2.3-1.8,4.4-2.5l-1.5-0.8l1.6-0.9L28,10.9c-0.4-0.4-0.9-0.7-1.5-0.8c0.7-2.2,3.1-3.5,5.5-4.4
			L30.4,5L32,4.1l-2.5-0.8c-0.7-0.8-1.3-1.1-2.3-1.1c-2.4,0-3.3,2-4.3,3.9c-0.5,1-0.8,1.4-1.6,1.9c-1.8,1.2-4.1,3-6.3,5.3
			c-1.1-0.8-3.5-3.3-4.1-4.6c-0.3,0.3-0.5,1-0.5,1c0.2,0.3,3,3.1,4,4.2c-0.1,0.1-0.2,0.2-0.2,0.3c-1.1,0.2-3.9,0.5-4.9,0.4l-0.5,1
			c0.7-0.1,3.6-0.4,4.7-0.5c-0.4,0.4-0.7,0.9-1,1.3c-3.6,0.4-6.1,1.2-6.1,2.5c0,0.2,0.1,0.5,0.1,0.7c0,0.6-0.2,0.8-0.6,1
			c-0.3,0.2-0.3,0.3-0.2,0.4c0.1,0.2,0.7,1,0.7,1.2c0,0.3-0.3,0.5-0.5,0.8c-0.2,0.2-0.2,0.3,0,0.5l1.1,2.2L8,26.6z"/>
		<path class="st0" d="M53,14c-0.2,0.2-0.4,0.5-0.6,0.8L51.8,14c2-2.6,7.1-3.8,10.2-4.1V8.6c-0.4,0.1-0.8,0.3-1.2,0.3
			c-0.5,0.1-1,0.3-1.5,0.2c-0.4,0-0.8-0.2-0.9-0.4c-0.4-0.6,0-1.5,1.3-2.3l-1.1-0.9c-0.8,1.1-1.6,2.2-2.4,2.9
			c-0.7,0.6-1.5,0.9-2.1,0.5c-0.3-0.3-0.5-0.4-0.5-1c0-1,0.6-2.4,1.1-3.4l-1.2-0.1c-0.2,1.5-0.8,2.7-1.5,3.7
			c-0.8,1.3-1.8,2.2-2.9,2.9l-0.7-0.7c0.9-0.5,1.9-1.3,2.6-2.4C52,6.6,52.7,5,52.7,3.5l3.6,0.3c-0.5,0.6-1.3,2.1-1.7,3.2
			c-0.2,0.5-0.2,1,0,1.1c0.4,0.3,1-0.2,1.7-0.9c0.9-1,1.8-2.5,2.2-3l2.6,2.2C60,7,58.9,7.8,59.1,8.1c0.2,0.4,0.9,0.3,1.8,0
			c0.7-0.2,1.4-0.5,1.9-0.8v3.5c-1.3,0-3.4,0.2-5.4,0.8c0.5,0.7,1.9,0.9,2.8,1.1l-0.4,2.9C57.5,14.6,55.7,14.1,53,14l0.9-0.8
			c2,0,4,0.6,5.1,1.2l0.2-1.1c-1-0.1-2.3-0.7-2.9-1.4c-0.9,0.3-1.7,0.8-2.4,1.3L53,14z"/>
		<path class="st0" d="M42.3,23.1l0.8-1.8c-0.9-1-1.9-2.3-2.7-3.7l-0.7-1.3c-1.7-3.2-1.1-4.7-1.9-6.1C37,9.2,33.5,9.9,32.9,10l1-1.7
			l-2,0.2l1.7-2.1c0.2-0.3,0.3-0.5,0.5-1.2c0.3-1.1,1.2-2.9,4-2.9c3,0,4,2.4,5.3,3.5c1.5,1.2,3.4,2.9,5.2,4.6l0.7,0.7
			c0.9,0.9,1.8,1.9,2.6,3l0.6,0.8c3.6,5.3,8.1,15.5,10.1,20.1c0.2,0.4,0.3,0.9,0.5,1.3c-1.4-0.7-2.8-1.7-4.4-2.7l-0.9-0.6
			c-0.6-0.4-1.1-0.8-1.7-1.2l-0.9-0.7c-0.6-0.4-1.1-0.9-1.6-1.4l1.8,10.6c0.1,0.6,0.7,0.5,1.1,0c0.4-0.5,0.6-0.7,0.4-1.4l-1.7-7.8
			l0.9,0.7l1.6,6.6c0.2,0.6,0.4,0.8,1.1,0.8c0.7,0,0.8-0.2,0.7-0.7l-1.8-5.5l0.9,0.6l1.7,4.9c0.4,1.3,0,1.4-0.8,1.4
			c-0.8,0-1.4-0.2-1.9,0.1c-0.4,0.3-0.9,1-1.6,1.6c-0.5,0.6-1.3,0.4-1.5-0.6l-2-12.2c-1.3-1.2-2.6-2.4-3.7-3.7
			c-0.5-0.2-1-0.5-1.5-0.7L46.7,24c-0.3-0.1-0.5-0.2-0.5-0.2c-0.6,0.7-1.1,1.4-1.7,1.9c-0.3,0.3-0.6,0.4-1,0.4c-0.2,0-0.3,0-0.5-0.1
			c-0.2-0.1-0.4-0.3-0.6-0.6c-0.1-0.2-0.4-0.5-0.6-0.8c-0.4-0.7-0.8-1.5-1.2-2.2c-0.4-0.8-0.8-1.3-0.9-1.4c-0.1-0.1-0.3-0.3-0.3-0.3
			c-0.2,0.3-0.4,1-0.4,1.4l-0.8-0.3c0.1-0.5,0.3-1.1,0.4-1.5c0-0.3-0.3-0.6-0.5-0.6c-0.3,0-0.7,0.4-0.9,1.1l-0.8,0.3
			c0.1-1.2,0.5-2.4,1.6-2.4c0.9,0,1.5,0.7,2,1.4C40.5,20.7,42,22.7,42.3,23.1l0.6,0.7c0.1,0.5,0.3,0.7,0.4,0.9
			c0.2,0.3,0.4,0.3,0.7,0c0.1-0.1,0.6-0.5,1-0.9c0.4-0.4,0.7-0.9,0.9-1.1c0.4,0.2,1.2,0.6,1.8,0.8c-2.7-3.4-5.3-7.4-6.5-10.2
			c-0.5-1.1,0.4-1.5,0.9-0.4c1.2,3.1,4.7,8.5,7.3,11.3c3,3.3,8.4,8.1,12,10c-0.5-1-1.2-2.5-2-4.1c-4.3-2.4-8.7-6.9-10.7-10.8
			l0.9,0.1c1.9,3.4,6.4,7.8,9.1,9.1c-2.4-5.2-5.6-11.8-8.1-14.6c-3.1-3.5-6.4-6.2-8.1-7.6c-1.6-1.4-2.2-3.1-4.5-3.1
			c-1.9,0-2.9,1.4-3.2,2.7c-0.1,0.3-0.1,0.4-0.3,0.7l-0.9,1.1l1.9-0.2L34.4,9c0,0,3-0.7,4.1,0.8c1.1,1.5,0.4,3.3,2.3,6.7
			c0.8,1.5,2.8,4.1,3.5,4.7l-1.3,2.7L42.3,23.1z"/>
		<path class="st0" d="M12.7,23.6l-0.5-0.3c0.3-0.2,0.8-0.5,1.3-0.8c0.3-0.1,0.5-0.2,0.8-0.2c0.5,0,1,0.2,1.4,0.4
			c0.7,0.4,1.4,0.8,2,0.8c0.2,0,0.4-0.1,0.7-0.1c0.6,0,1.1,0.3,1.5,0.3c0.2,0,0.3-0.2,0.5-0.4c0.3-0.5,0.8-0.8,1.3-1
			c0.6-0.3,1.3-0.4,2.1-0.4c0.6,0,1.2,0.1,1.5,0.2c0,0-0.5,0.6-0.6,0.7c-0.6,0-1.8,0-2.6,0.3c-0.5,0.2-0.6,0.5-0.6,0.9
			c0,0.6,0.6,0.8,1.3,1c0.4,0.1,0.9,0.2,1.3,0.2c0.5,0,1.4-0.2,2.3-0.4c1.1-0.2,2.1-0.5,2.4-0.6l0.4,0.7c-1.2,0.4-2.5,0.8-3.7,1.1
			c-0.7,0.1-1.3,0.2-1.9,0.2c-0.9,0-2-0.4-2.8-0.8c-0.7-0.3-1.3-0.7-1.9-0.7c-0.6,0-1.2,0.2-1.8,0.6c-0.3,0.2-1.2,0.8-1.9,1.1
			c-0.6,0.2-1.1,0.4-1.7,0.4c-0.5,0-0.9-0.1-1.1-0.3l0.9-0.6c0.1,0.1,0.3,0.1,0.5,0.1c0.1,0,0.3,0,0.7-0.2c0.2-0.1,0.5-0.3,0.7-0.4
			c0.4-0.2,0.5-0.4,0.6-0.5c0.3-0.2,0.4-0.5,0-0.8c-0.2-0.2-0.3-0.3-0.6-0.4c-0.3-0.2-0.6-0.4-1.1-0.4C13.4,23.3,13,23.5,12.7,23.6z
			"/>
		<path class="st0" d="M25.6,24c0,0-0.6-0.2-0.7-0.2c0.4-0.5,0.9-0.9,1.2-1.2c0.8-0.5,1.5-0.8,2.7-0.9c0.3,0,1-0.1,1.4-0.1
			c0.3,0,0.9,0,1.4,0.1c0.4,0.1,0.7,0.2,1,0.2c0.2,0,0.8,0,1,0c0.8-0.1,1.9-0.5,2.4-0.8l0.2,0.8c-1.1,0.6-2.4,1.1-3.6,1.1
			c-0.6,0-1.2,0-1.8-0.1c-1-0.1-2-0.2-2.3-0.2C27.7,22.9,26.4,23.3,25.6,24z"/>
		<path class="st0" d="M24.8,28.5L23.7,28c1.5-0.8,3.8-1.5,4.7-1.7c0.9-0.1,2-0.3,2.6-0.5c0.3,0.7,0.8,1.5,1.6,1.5
			c0.3,0,0.8-0.2,1.3-0.4c0.5-0.2,1.1-0.5,1.4-0.6c0.3-0.1,1.3-0.6,2.1-0.9c0.3-0.1,1.2-0.6,1.2-0.6l0.6,0.3
			c-0.2,0.7-0.4,1.7-0.8,2.3c-0.1,0.3-0.2,0.5-0.4,0.6c-0.2,0.3-0.6,0.6-1.2,1c-0.6,0.4-1.3,0.8-2,1.2c-0.6,0.3-1.1,0.7-1.7,0.9
			l-0.3-0.5c0.9-0.5,1.8-1.1,2.6-1.7c0.4-0.3,0.7-0.6,1-0.8c0.2-0.2,0.3-0.3,0.4-0.5c0.2-0.3,0.6-1,0.7-1.4
			c-0.3,0.2-1.6,0.8-2.2,1.1c-0.6,0.3-1.7,0.9-2.2,1.1c-0.5,0.2-0.9,0.3-1.2,0.3c-0.6,0-0.9-0.5-1.1-0.7c-0.4-0.7-0.8-0.8-2-0.8
			C27.7,27.2,25.9,27.7,24.8,28.5z"/>
		<path class="st0" d="M31,25.1c0,0-0.2-0.6-0.2-0.9c0,0,0.2-0.1,0.4-0.1c0.4,0,1.4,0.1,1.8,0.1c1.5,0,2.1-0.5,2.6-0.9
			c0.4-0.3,0.8-0.6,1.8-0.6c0.9,0,2,0.4,2.3,0.5l-0.1,0.8c-0.5-0.2-1.1-0.4-1.6-0.4c-0.4,0-0.7,0-1,0.2c-0.3,0.1-0.4,0.4-0.7,0.6
			c-0.3,0.2-0.6,0.4-1.1,0.6c-0.5,0.2-1.1,0.3-2,0.3C32.1,25.4,31.4,25.2,31,25.1z"/>
		<path class="st0" d="M21.3,31.5l0.7-0.3c0.7,0.3,1.6,0.5,2.2,0.5c0.4,0,0.7-0.1,1-0.3c0.2-0.1,2.6-1.3,3.8-1.7
			c0.4-0.1,0.8-0.2,0.9-0.2c0.3,0,0.3,0.1,0.4,0.3c0.2,0.4,2,2.9,2.1,3c1.5-0.5,3-1.1,3.9-2c0.9-0.9,1.7-1.9,2.4-2.7
			c0.3-0.3,0.6-0.6,0.8-0.7c0.8-0.4,3.1-0.4,4.1-0.4L43.1,28c-1.7,0-2.7,0.2-3.2,0.5c-0.2,0.1-0.5,0.4-0.7,0.8
			c-0.6,0.8-1.2,1.8-1.5,2.1c0.5,0.4,1.1,0.7,2,0.7c1.5,0,2.5-0.9,3.1-1.5l0.5,0.3c-0.4,0.5-0.8,1-1.3,1.3c-0.6,0.4-1.3,0.7-1.8,0.8
			c-0.9-0.2-2.8-0.5-3.2-0.6c-1.6,0.7-4.3,1.7-5.2,2c-0.1,0-0.3,0.1-0.6,0.1c-0.7,0-1.7,0-2.6,0c-0.6,0-1.2,0-1.5-0.1l-0.8-0.8
			c0.7,0.1,1,0.2,1.6,0.2c1.5,0,2.5-0.3,2.9-0.3c0.3-0.1,0.3-0.2,0.2-0.5c-0.1-0.4-0.4-0.8-0.7-1.2c-0.2-0.2-0.6-0.6-0.8-0.7
			c-0.2-0.1-0.4-0.2-1,0c-0.5,0.2-2.2,1.1-2.9,1.5c-0.4,0.2-0.6,0.2-1.3,0.1C23.5,32.5,21.9,31.9,21.3,31.5z"/>
		<circle class="st0" cx="25.9" cy="12.3" r="0.6"/>
	</g>
	<g>
		<path class="st0" d="M49.2,48.2c0-0.5-0.4-0.9-0.9-0.9H47c-0.5,0-0.9,0.4-0.9,0.9l0,13.7c0,0.5,0.4,0.9,0.9,0.9h1.3
			c0.5,0,0.9-0.4,0.9-0.9V48.2z"/>
		<path class="st0" d="M50.9,48.5l0,0.7c0,0.3,0.2,0.5,0.5,0.5l9.1,0c0.4,0,0.7-0.3,0.7-0.7v-1.1c0-0.4-0.3-0.8-0.7-0.7
			c0,0-8.7,0.9-9,0.9C51.1,48,50.9,48.2,50.9,48.5z"/>
		<path class="st0" d="M43.6,62.8c-2.3,0-3.7-1.7-3.7-3.6l0-5.5l-0.6,0c-0.3,0-0.6-0.3-0.6-0.6v-0.9c0-0.3,0.3-0.6,0.6-0.6l0.6,0
			l0-3.4c0-0.5,0.4-0.9,0.9-0.9l1.3,0c0.5,0,0.9,0.4,0.9,0.9l0,3.4l2,0c0.3,0,0.6,0.3,0.6,0.6v0.9c0,0.3-0.3,0.6-0.6,0.6l-2,0l0,5.1
			c0,1,0.6,1.7,1.7,1.7l0.2,0c0.4,0,0.7,0.3,0.7,0.7v1c0,0.4-0.3,0.7-0.7,0.7H43.6z"/>
		<path class="st0" d="M22.5,53.5c1.3,0,2.5,1,2.6,2.3h-5.2C20,54.4,21.1,53.5,22.5,53.5v-2.4c-3.6,0-5.7,2.9-5.7,5.9
			c0,3.2,2.2,6,5.7,6c2.4,0,4.8-1.3,5.2-3.4c0.1-0.3-0.1-0.7-0.5-0.7l-1.7,0c-0.3,0-0.6,0.1-0.7,0.4c-0.5,0.7-1.2,1.1-2.3,1.1
			c-1.5,0-2.6-1.2-2.6-2.5l7.3,0c0.7,0,1-0.4,1-1c0-2.9-1.7-5.9-5.7-5.9V53.5z"/>
		<path class="st0" d="M55.8,53.5c1.3,0,2.5,1,2.6,2.3h-5.2C53.3,54.4,54.5,53.5,55.8,53.5v-2.4c-3.6,0-5.7,2.9-5.7,5.9
			c0,3.2,2.2,6,5.7,6c2.4,0,4.8-1.3,5.2-3.4c0.1-0.3-0.1-0.7-0.5-0.7l-1.7,0c-0.3,0-0.6,0.1-0.7,0.4c-0.5,0.7-1.2,1.1-2.3,1.1
			c-1.5,0-2.6-1.2-2.6-2.5l7.3,0c0.7,0,1-0.4,1-1c0-2.9-1.7-5.9-5.7-5.9V53.5z"/>
		<path class="st0" d="M37.4,47.4H13.7c-0.5,0-1,0.4-1,1l0.1,9.3c0,0-5.1-9.2-5.4-9.7c-0.3-0.4-0.8-0.9-1.5-0.9H4c-0.5,0-1,0.4-1,1
			l0,13.7c0,0.5,0.4,1,1,1l1.3,0c0.5,0,1-0.4,1-1l-0.1-9.6c0,0,5.2,9.3,5.4,9.7c0.3,0.5,0.8,0.9,1.5,0.9l1.8,0c0.5,0,1-0.4,1-1
			l0-12.1l21.6,0c0.4,0,0.7-0.3,0.7-0.7v-1C38.1,47.7,37.8,47.4,37.4,47.4z"/>
		<path class="st0" d="M33.6,53.4c1,0,1.8,0.4,2.1,1c0.1,0.3,0.4,0.4,0.7,0.4h1.4c0.2,0,0.5-0.2,0.5-0.5c0-1.7-2-3.1-4.7-3.1
			c-2.9,0-4.8,1.4-4.8,3.6c0,1.7,1.3,2.7,2.9,3.1c0.7,0.2,2,0.5,2.6,0.7c0.7,0.2,1.3,0.4,1.3,0.9c0,0.9-0.9,1.2-2,1.2
			c-1,0-2-0.4-2.2-1.1C31.3,59,31,59,30.6,59h-1.4c-0.3,0-0.5,0.2-0.5,0.5v0.2c0,1.6,2.1,3.3,5.1,3.3c2.1,0,5-0.9,5-3.7
			c0-1.6-1.1-2.8-2.9-3.2c-0.7-0.2-2.4-0.6-2.7-0.7c-0.6-0.2-1.2-0.4-1.2-0.9C31.9,53.6,32.6,53.4,33.6,53.4z"/>
	</g>
</g>
</svg>
