<?xml version="1.0" encoding="utf-8"?>
<!-- Generator: Adobe Illustrator 20.0.0, SVG Export Plug-In . SVG Version: 6.00 Build 0)  -->
<svg version="1.1" id="Calque_1" xmlns="http://www.w3.org/2000/svg" xmlns:xlink="http://www.w3.org/1999/xlink" x="0px" y="0px"
	 viewBox="0 0 24 30.5" style="enable-background:new 0 0 24 30.5;" xml:space="preserve">
<style type="text/css">
	.st0{fill:#E8E8DF;}
	.st1{fill:#D9D7CA;}
	.st2{fill:#B24D4E;}
	.st3{fill:#FFFFFF;}
</style>
<g>
	<path class="st0" d="M16.9,0.3H1.3c-0.4,0-0.8,0.4-0.8,1v28.4c0,0.2,0.4,0.5,0.8,0.5h21.5c0.4,0,0.8-0.4,0.8-0.5V7.2
		c0-0.4,0-0.5-0.1-0.6l-6.2-6.2C17.1,0.3,17,0.3,16.9,0.3z"/>
	<polygon class="st1" points="17.2,0.3 17.2,6.7 23.5,6.7 	"/>
	<path class="st2" d="M7.5,18.1L7.5,18.1c-0.2,0-0.4-0.1-0.5-0.2c-0.6-0.4-0.6-0.9-0.6-1.2c0.1-0.9,1.2-1.8,3.2-2.7
		c0.8-1.8,1.6-3.9,2-5.8c-0.5-1.2-1.1-2.7-0.7-3.6c0.1-0.3,0.3-0.5,0.6-0.7C11.7,4,12,4,12.1,4c0.3,0,0.5,0.3,0.7,0.6
		c0.2,0.2,0.5,0.6-0.2,3.6c0.7,1.5,1.7,3,2.7,4.1c0.7-0.1,1.3-0.2,1.8-0.2c0.8,0,1.3,0.2,1.6,0.6c0.2,0.3,0.1,0.7-0.2,1.2
		c-0.3,0.4-0.7,0.6-1.2,0.6c-0.7,0-1.4-0.4-2.3-1.2c-1.5,0.3-3.3,0.9-4.7,1.5c-0.4,1-0.9,1.7-1.3,2.3C8.5,17.8,8,18.1,7.5,18.1z
		 M9,15.4c-1.1,0.6-1.6,1.2-1.6,1.5c0,0,0,0.2,0.2,0.4C7.6,17.2,8.1,17,9,15.4z M16.3,13c0.4,0.3,0.5,0.5,0.8,0.5
		c0.1,0,0.5,0,0.6-0.2c0.1-0.1,0.1-0.2,0.1-0.2c-0.1,0-0.2-0.1-0.6-0.1C17,12.9,16.6,12.9,16.3,13z M12.3,9.5
		c-0.4,1.3-0.9,2.8-1.4,4.1c1.1-0.4,2.3-0.8,3.5-1.1C13.6,11.6,12.9,10.5,12.3,9.5z M11.9,4.9c-0.1,0-0.7,0.9,0.1,1.7
		C12.5,5.5,12,4.9,11.9,4.9z"/>
	<path class="st2" d="M22.8,30.3H1.3c-0.4,0-0.8-0.4-0.8-0.8v-8.3h23v8.3C23.6,29.9,23.2,30.3,22.8,30.3z"/>
	<g>
		<path class="st3" d="M6.4,28.7H5.5v-5.4h1.6c0.2,0,0.5,0,0.7,0.1c0.2,0.1,0.4,0.2,0.6,0.3c0.2,0.1,0.3,0.3,0.4,0.5
			c0.1,0.2,0.2,0.4,0.2,0.7c0,0.3,0,0.5-0.1,0.7c-0.1,0.2-0.2,0.4-0.4,0.6c-0.2,0.2-0.4,0.3-0.6,0.4c-0.2,0.1-0.5,0.1-0.8,0.1H6.4
			V28.7z M6.4,23.9v2.1h0.8c0.1,0,0.2,0,0.3-0.1c0.1,0,0.2-0.1,0.3-0.2C7.9,25.7,8,25.6,8,25.5c0.1-0.1,0.1-0.3,0.1-0.6
			c0-0.1,0-0.2,0-0.3c0-0.1-0.1-0.2-0.2-0.3c-0.1-0.1-0.2-0.2-0.3-0.3C7.5,24,7.3,23.9,7,23.9H6.4z"/>
		<path class="st3" d="M14.3,25.8c0,0.4,0,0.8-0.1,1.1s-0.2,0.6-0.4,0.8s-0.3,0.4-0.5,0.5c-0.2,0.1-0.4,0.2-0.5,0.3
			c-0.2,0.1-0.3,0.1-0.5,0.1c-0.1,0-0.2,0-0.3,0h-2v-5.4h1.6c0.5,0,0.9,0.1,1.2,0.2c0.3,0.1,0.6,0.3,0.9,0.6
			c0.2,0.2,0.4,0.5,0.5,0.8C14.3,25.2,14.3,25.5,14.3,25.8z M11.7,28c0.6,0,1-0.2,1.3-0.6s0.4-0.9,0.4-1.7c0-0.2,0-0.4-0.1-0.7
			c-0.1-0.2-0.2-0.4-0.3-0.6c-0.2-0.2-0.4-0.3-0.6-0.4s-0.6-0.2-1-0.2h-0.5V28H11.7z"/>
		<path class="st3" d="M16.5,23.9v1.7h2.3v0.6h-2.3v2.4h-0.9v-5.4H19v0.7H16.5z"/>
	</g>
</g>
</svg>
