<?xml version="1.0" encoding="utf-8"?>
<!-- Generator: Adobe Illustrator 20.0.0, SVG Export Plug-In . SVG Version: 6.00 Build 0)  -->
<svg version="1.1" id="Calque_1" xmlns="http://www.w3.org/2000/svg" xmlns:xlink="http://www.w3.org/1999/xlink" x="0px" y="0px"
	 viewBox="0 0 40 40" style="enable-background:new 0 0 40 40;" xml:space="preserve">
<style type="text/css">
	.st0{clip-path:url(#SVGID_2_);fill:#FFFFFF;}
</style>
<g>
	<g>
		<defs>
			<rect id="SVGID_1_" width="40" height="40"/>
		</defs>
		<clipPath id="SVGID_2_">
			<use xlink:href="#SVGID_1_"  style="overflow:visible;"/>
		</clipPath>
		<path class="st0" d="M14.1,4.6c-1.9,1.4-2.9,2.8-2.9,4.1V15c0,1.4,0.3,3,1,4.9c0.7,1.8,1.6,3.2,2.8,4.2c0.7,0.6,1,1.4,0.9,2.3
			c-0.1,0.9-0.6,1.5-1.4,1.9l-11,5.2c-0.7,0.3-1,0.8-1,1.4v2.6h35V35c0-0.8-0.3-1.3-1-1.5h-0.1l-10.9-5.2c-0.8-0.4-1.3-1.1-1.4-2
			s0.2-1.7,0.9-2.2c1.2-1,2.1-2.4,2.7-4.2c0.6-1.8,0.9-3.5,0.9-4.9V8.8c0-1.4-0.9-2.7-2.8-4.1s-3.9-2.1-5.9-2.1
			C18,2.5,16,3.2,14.1,4.6 M31.3,8.8V15c0,1.8-0.4,3.8-1.1,6c-0.8,2.2-1.9,3.9-3.5,5.1l10.9,5.2l0.6,0.3c0.4,0.2,0.8,0.4,1.3,0.9
			c0.4,0.4,0.6,0.9,0.6,1.3v3.8c0,0.7-0.2,1.3-0.7,1.8s-1.1,0.7-1.8,0.7h-35c-0.7,0-1.3-0.2-1.8-0.7C0.2,38.8,0,38.2,0,37.5v-3.8
			c0-0.4,0.2-0.8,0.7-1.3c0.5-0.4,0.8-0.7,1.1-0.9c0.3-0.2,0.5-0.3,0.7-0.3L13.4,26c-1.6-1.3-2.7-3-3.5-5.2s-1.2-4.1-1.2-5.9V8.8
			c0-2.1,1.2-4.1,3.6-5.9C14.7,0.9,17.2,0,20,0c2.7,0,5.3,0.9,7.7,2.8S31.3,6.7,31.3,8.8"/>
	</g>
</g>
</svg>
