<?xml version="1.0" encoding="utf-8"?>
<!-- Generator: Adobe Illustrator 20.0.0, SVG Export Plug-In . SVG Version: 6.00 Build 0)  -->
<svg version="1.1" id="Calque_1" xmlns="http://www.w3.org/2000/svg" xmlns:xlink="http://www.w3.org/1999/xlink" x="0px" y="0px"
	 viewBox="0 0 28 29" style="enable-background:new 0 0 28 29;" xml:space="preserve">
<style type="text/css">
	.st0{fill:#3700EB;}
</style>
<g>
	<g>
		<path class="st0" d="M11.6,23.2C5.2,23.2,0,18,0,11.6C0,5.2,5.2,0,11.6,0s11.6,5.2,11.6,11.6C23.3,18,18,23.2,11.6,23.2z
			 M11.6,2.2c-5.2,0-9.4,4.2-9.4,9.4S6.5,21,11.6,21c5.2,0,9.4-4.2,9.4-9.4S16.8,2.2,11.6,2.2z"/>
	</g>
	<g>
		<path class="st0" d="M26.9,29c-0.3,0-0.6-0.1-0.8-0.3l-8.2-8.5c-0.4-0.4-0.4-1.2,0-1.6c0.4-0.4,1.2-0.4,1.6,0l8.2,8.5
			c0.4,0.4,0.4,1.2,0,1.6C27.4,28.9,27.2,29,26.9,29z"/>
	</g>
</g>
</svg>
