<?xml version="1.0" encoding="utf-8"?>
<!-- Generator: Adobe Illustrator 20.0.0, SVG Export Plug-In . SVG Version: 6.00 Build 0)  -->
<svg version="1.1" id="Calque_1" xmlns="http://www.w3.org/2000/svg" xmlns:xlink="http://www.w3.org/1999/xlink" x="0px" y="0px"
	 viewBox="0 0 22 19" style="enable-background:new 0 0 22 19;" xml:space="preserve">
<style type="text/css">
	.st0{fill:#FFFFFF;}
</style>
<g>
	<g>
		<g>
			<path class="st0" d="M16.4,6.9c-0.2,0-0.4-0.2-0.5-0.4c0-0.3,0.1-0.5,0.4-0.6c1-0.1,1.9,0,2,0c0.3,0,0.5,0.3,0.4,0.6
				c0,0.3-0.3,0.5-0.6,0.4C18.2,6.9,17.3,6.7,16.4,6.9C16.5,6.9,16.5,6.9,16.4,6.9z"/>
		</g>
		<g>
			<path class="st0" d="M8.8,6.1c-0.3,0-0.5-0.2-0.5-0.5c0-1.3-1.1-2.4-2.4-2.4S3.5,4.3,3.5,5.6c0,0.3-0.2,0.5-0.5,0.5
				S2.5,5.9,2.5,5.6c0-1.9,1.5-3.4,3.4-3.4s3.4,1.5,3.4,3.4C9.3,5.9,9.1,6.1,8.8,6.1z"/>
		</g>
		<g>
			<path class="st0" d="M17.5,15h-1.4c-0.3,0-0.5-0.2-0.5-0.5s0.2-0.5,0.5-0.5h1.4c1.9,0,3.5-1.6,3.5-3.6c0-1.7-1.2-3.2-2.9-3.5
				l-0.4-0.1V6.4c0-3-2.4-5.4-5.3-5.4c-1.8,0-3.6,1-4.5,2.5L7.7,3.9L7.3,3.6C6.9,3.3,6.4,3.2,5.9,3.2c-1.3,0-2.4,1.1-2.4,2.4v0.7
				L3.2,6.5C1.9,7.1,1,8.6,1,10.1C1,12.2,2.7,14,4.8,14h1.9c0.3,0,0.5,0.2,0.5,0.5S6.9,15,6.7,15H4.8C2.1,15,0,12.8,0,10.1
				c0-1.8,1-3.5,2.5-4.4V5.6c0-1.9,1.5-3.4,3.4-3.4c0.5,0,1,0.1,1.5,0.3C8.6,1,10.5,0,12.5,0c3.3,0,6,2.6,6.2,6
				c1.9,0.6,3.3,2.4,3.3,4.4C22,12.9,20,15,17.5,15z"/>
		</g>
		<g>
			<path class="st0" d="M11.4,19c-0.3,0-0.5-0.2-0.5-0.5v-8.4c0-0.3,0.2-0.5,0.5-0.5s0.5,0.2,0.5,0.5v8.4C11.9,18.8,11.6,19,11.4,19
				z"/>
		</g>
		<g>
			<path class="st0" d="M11.4,19c-0.1,0-0.3,0-0.3-0.1L8.2,16c-0.2-0.2-0.2-0.5,0-0.7s0.5-0.2,0.7,0l2.9,2.9c0.2,0.2,0.2,0.5,0,0.7
				C11.6,19,11.5,19,11.4,19z"/>
		</g>
		<g>
			<path class="st0" d="M11.4,19c-0.1,0-0.3,0-0.3-0.1c-0.2-0.2-0.2-0.5,0-0.7l2.9-2.9c0.2-0.2,0.5-0.2,0.7,0s0.2,0.5,0,0.7
				l-2.9,2.9C11.6,19,11.5,19,11.4,19z"/>
		</g>
	</g>
</g>
</svg>
